ISO-10303-21;
HEADER;
/* Generated by software containing ST-Developer
 * from STEP Tools, Inc. (www.steptools.com) 
 */
/* OPTION: using custom renumber hook */

FILE_DESCRIPTION(
/* description */ ('STEP AP242 Edition 2',
'CAx-IF Rec.Pracs.---Representation and Presentation of Product Manufa
cturing Information (PMI)---4.0---2014-10-13',
'CAx-IF Rec.Pracs.---3D Tessellated Geometry---0.4---2014-09-14','2;1',
'CAx-IF Rec.Pracs.---User Defined Attributes---1.5---2016-08-15'),
/* implementation_level */ '2;1');

FILE_NAME(
/* name */ 'Case - Lid',
/* time_stamp */ '2026-07-03T07:47:41Z',
/* author */ (''),
/* organization */ (''),
/* preprocessor_version */ 'ST-DEVELOPER v20',
/* originating_system */ 'ONSHAPE BY PTC INC, 1.217',
/* authorisation */ '  ');

FILE_SCHEMA (('AP242_MANAGED_MODEL_BASED_3D_ENGINEERING_MIM_LF { 1 0 10303 442 3 1 4 }'));
ENDSEC;

DATA;
#10=SHAPE_REPRESENTATION_RELATIONSHIP('','',#675,#11);
#11=ADVANCED_BREP_SHAPE_REPRESENTATION('',(#673),#1097);
#12=CONICAL_SURFACE('',#711,0.0021,0.785398163397449);
#13=CONICAL_SURFACE('',#714,0.0021,0.785398163397447);
#14=CONICAL_SURFACE('',#717,0.0021,0.785398163397446);
#15=CONICAL_SURFACE('',#720,0.0021,0.785398163397447);
#16=CYLINDRICAL_SURFACE('',#694,0.0025);
#17=CYLINDRICAL_SURFACE('',#698,0.0025);
#18=CYLINDRICAL_SURFACE('',#704,0.0025);
#19=CYLINDRICAL_SURFACE('',#707,0.0025);
#20=CIRCLE('',#691,0.0025);
#21=CIRCLE('',#692,0.0025);
#22=CIRCLE('',#695,0.0025);
#23=CIRCLE('',#696,0.0025);
#24=CIRCLE('',#699,0.0025);
#25=CIRCLE('',#700,0.0025);
#26=CIRCLE('',#702,0.0025);
#27=CIRCLE('',#703,0.0025);
#28=CIRCLE('',#705,0.0025);
#29=CIRCLE('',#708,0.0025);
#30=CIRCLE('',#712,0.0017);
#31=CIRCLE('',#715,0.0017);
#32=CIRCLE('',#718,0.0017);
#33=CIRCLE('',#721,0.0017);
#34=ORIENTED_EDGE('',*,*,#214,.F.);
#35=ORIENTED_EDGE('',*,*,#215,.F.);
#36=ORIENTED_EDGE('',*,*,#216,.F.);
#37=ORIENTED_EDGE('',*,*,#217,.F.);
#38=ORIENTED_EDGE('',*,*,#218,.T.);
#39=ORIENTED_EDGE('',*,*,#219,.T.);
#40=ORIENTED_EDGE('',*,*,#220,.F.);
#41=ORIENTED_EDGE('',*,*,#221,.F.);
#42=ORIENTED_EDGE('',*,*,#222,.F.);
#43=ORIENTED_EDGE('',*,*,#223,.T.);
#44=ORIENTED_EDGE('',*,*,#224,.T.);
#45=ORIENTED_EDGE('',*,*,#225,.T.);
#46=ORIENTED_EDGE('',*,*,#226,.F.);
#47=ORIENTED_EDGE('',*,*,#227,.F.);
#48=ORIENTED_EDGE('',*,*,#219,.F.);
#49=ORIENTED_EDGE('',*,*,#228,.T.);
#50=ORIENTED_EDGE('',*,*,#229,.F.);
#51=ORIENTED_EDGE('',*,*,#230,.F.);
#52=ORIENTED_EDGE('',*,*,#231,.T.);
#53=ORIENTED_EDGE('',*,*,#232,.T.);
#54=ORIENTED_EDGE('',*,*,#233,.F.);
#55=ORIENTED_EDGE('',*,*,#232,.F.);
#56=ORIENTED_EDGE('',*,*,#234,.T.);
#57=ORIENTED_EDGE('',*,*,#235,.T.);
#58=ORIENTED_EDGE('',*,*,#236,.F.);
#59=ORIENTED_EDGE('',*,*,#237,.F.);
#60=ORIENTED_EDGE('',*,*,#238,.F.);
#61=ORIENTED_EDGE('',*,*,#239,.T.);
#62=ORIENTED_EDGE('',*,*,#240,.F.);
#63=ORIENTED_EDGE('',*,*,#238,.T.);
#64=ORIENTED_EDGE('',*,*,#241,.T.);
#65=ORIENTED_EDGE('',*,*,#242,.T.);
#66=ORIENTED_EDGE('',*,*,#241,.F.);
#67=ORIENTED_EDGE('',*,*,#237,.T.);
#68=ORIENTED_EDGE('',*,*,#243,.F.);
#69=ORIENTED_EDGE('',*,*,#244,.T.);
#70=ORIENTED_EDGE('',*,*,#239,.F.);
#71=ORIENTED_EDGE('',*,*,#242,.F.);
#72=ORIENTED_EDGE('',*,*,#224,.F.);
#73=ORIENTED_EDGE('',*,*,#245,.T.);
#74=ORIENTED_EDGE('',*,*,#246,.T.);
#75=ORIENTED_EDGE('',*,*,#247,.T.);
#76=ORIENTED_EDGE('',*,*,#225,.F.);
#77=ORIENTED_EDGE('',*,*,#246,.F.);
#78=ORIENTED_EDGE('',*,*,#248,.T.);
#79=ORIENTED_EDGE('',*,*,#249,.T.);
#80=ORIENTED_EDGE('',*,*,#248,.F.);
#81=ORIENTED_EDGE('',*,*,#245,.F.);
#82=ORIENTED_EDGE('',*,*,#223,.F.);
#83=ORIENTED_EDGE('',*,*,#222,.T.);
#84=ORIENTED_EDGE('',*,*,#247,.F.);
#85=ORIENTED_EDGE('',*,*,#249,.F.);
#86=ORIENTED_EDGE('',*,*,#231,.F.);
#87=ORIENTED_EDGE('',*,*,#250,.F.);
#88=ORIENTED_EDGE('',*,*,#251,.F.);
#89=ORIENTED_EDGE('',*,*,#234,.F.);
#90=ORIENTED_EDGE('',*,*,#252,.F.);
#91=ORIENTED_EDGE('',*,*,#228,.F.);
#92=ORIENTED_EDGE('',*,*,#218,.F.);
#93=ORIENTED_EDGE('',*,*,#253,.F.);
#94=ORIENTED_EDGE('',*,*,#254,.F.);
#95=ORIENTED_EDGE('',*,*,#255,.T.);
#96=ORIENTED_EDGE('',*,*,#244,.F.);
#97=ORIENTED_EDGE('',*,*,#243,.T.);
#98=ORIENTED_EDGE('',*,*,#236,.T.);
#99=ORIENTED_EDGE('',*,*,#240,.T.);
#100=ORIENTED_EDGE('',*,*,#256,.F.);
#101=ORIENTED_EDGE('',*,*,#253,.T.);
#102=ORIENTED_EDGE('',*,*,#221,.T.);
#103=ORIENTED_EDGE('',*,*,#257,.F.);
#104=ORIENTED_EDGE('',*,*,#258,.F.);
#105=ORIENTED_EDGE('',*,*,#259,.T.);
#106=ORIENTED_EDGE('',*,*,#254,.T.);
#107=ORIENTED_EDGE('',*,*,#256,.T.);
#108=ORIENTED_EDGE('',*,*,#260,.T.);
#109=ORIENTED_EDGE('',*,*,#261,.T.);
#110=ORIENTED_EDGE('',*,*,#262,.F.);
#111=ORIENTED_EDGE('',*,*,#261,.F.);
#112=ORIENTED_EDGE('',*,*,#263,.F.);
#113=ORIENTED_EDGE('',*,*,#264,.F.);
#114=ORIENTED_EDGE('',*,*,#265,.F.);
#115=ORIENTED_EDGE('',*,*,#264,.T.);
#116=ORIENTED_EDGE('',*,*,#266,.T.);
#117=ORIENTED_EDGE('',*,*,#215,.T.);
#118=ORIENTED_EDGE('',*,*,#267,.F.);
#119=ORIENTED_EDGE('',*,*,#216,.T.);
#120=ORIENTED_EDGE('',*,*,#266,.F.);
#121=ORIENTED_EDGE('',*,*,#263,.T.);
#122=ORIENTED_EDGE('',*,*,#260,.F.);
#123=ORIENTED_EDGE('',*,*,#257,.T.);
#124=ORIENTED_EDGE('',*,*,#220,.T.);
#125=ORIENTED_EDGE('',*,*,#227,.T.);
#126=ORIENTED_EDGE('',*,*,#268,.F.);
#127=ORIENTED_EDGE('',*,*,#269,.T.);
#128=ORIENTED_EDGE('',*,*,#270,.F.);
#129=ORIENTED_EDGE('',*,*,#217,.T.);
#130=ORIENTED_EDGE('',*,*,#267,.T.);
#131=ORIENTED_EDGE('',*,*,#271,.T.);
#132=ORIENTED_EDGE('',*,*,#272,.F.);
#133=ORIENTED_EDGE('',*,*,#271,.F.);
#134=ORIENTED_EDGE('',*,*,#269,.F.);
#135=ORIENTED_EDGE('',*,*,#273,.F.);
#136=ORIENTED_EDGE('',*,*,#274,.F.);
#137=ORIENTED_EDGE('',*,*,#273,.T.);
#138=ORIENTED_EDGE('',*,*,#268,.T.);
#139=ORIENTED_EDGE('',*,*,#226,.T.);
#140=ORIENTED_EDGE('',*,*,#252,.T.);
#141=ORIENTED_EDGE('',*,*,#275,.T.);
#142=ORIENTED_EDGE('',*,*,#276,.F.);
#143=ORIENTED_EDGE('',*,*,#275,.F.);
#144=ORIENTED_EDGE('',*,*,#255,.F.);
#145=ORIENTED_EDGE('',*,*,#259,.F.);
#146=ORIENTED_EDGE('',*,*,#277,.F.);
#147=ORIENTED_EDGE('',*,*,#278,.T.);
#148=ORIENTED_EDGE('',*,*,#279,.F.);
#149=ORIENTED_EDGE('',*,*,#272,.T.);
#150=ORIENTED_EDGE('',*,*,#277,.T.);
#151=ORIENTED_EDGE('',*,*,#274,.T.);
#152=ORIENTED_EDGE('',*,*,#280,.F.);
#153=ORIENTED_EDGE('',*,*,#281,.T.);
#154=ORIENTED_EDGE('',*,*,#282,.F.);
#155=ORIENTED_EDGE('',*,*,#283,.T.);
#156=ORIENTED_EDGE('',*,*,#280,.T.);
#157=ORIENTED_EDGE('',*,*,#276,.T.);
#158=ORIENTED_EDGE('',*,*,#282,.T.);
#159=ORIENTED_EDGE('',*,*,#258,.T.);
#160=ORIENTED_EDGE('',*,*,#284,.F.);
#161=ORIENTED_EDGE('',*,*,#285,.T.);
#162=ORIENTED_EDGE('',*,*,#286,.F.);
#163=ORIENTED_EDGE('',*,*,#287,.T.);
#164=ORIENTED_EDGE('',*,*,#284,.T.);
#165=ORIENTED_EDGE('',*,*,#262,.T.);
#166=ORIENTED_EDGE('',*,*,#286,.T.);
#167=ORIENTED_EDGE('',*,*,#265,.T.);
#168=ORIENTED_EDGE('',*,*,#288,.F.);
#169=ORIENTED_EDGE('',*,*,#289,.T.);
#170=ORIENTED_EDGE('',*,*,#290,.F.);
#171=ORIENTED_EDGE('',*,*,#291,.T.);
#172=ORIENTED_EDGE('',*,*,#288,.T.);
#173=ORIENTED_EDGE('',*,*,#214,.T.);
#174=ORIENTED_EDGE('',*,*,#290,.T.);
#175=ORIENTED_EDGE('',*,*,#270,.T.);
#176=ORIENTED_EDGE('',*,*,#279,.T.);
#177=ORIENTED_EDGE('',*,*,#292,.T.);
#178=ORIENTED_EDGE('',*,*,#293,.F.);
#179=ORIENTED_EDGE('',*,*,#294,.F.);
#180=ORIENTED_EDGE('',*,*,#295,.F.);
#181=ORIENTED_EDGE('',*,*,#296,.F.);
#182=ORIENTED_EDGE('',*,*,#292,.F.);
#183=ORIENTED_EDGE('',*,*,#278,.F.);
#184=ORIENTED_EDGE('',*,*,#281,.F.);
#185=ORIENTED_EDGE('',*,*,#283,.F.);
#186=ORIENTED_EDGE('',*,*,#285,.F.);
#187=ORIENTED_EDGE('',*,*,#287,.F.);
#188=ORIENTED_EDGE('',*,*,#289,.F.);
#189=ORIENTED_EDGE('',*,*,#291,.F.);
#190=ORIENTED_EDGE('',*,*,#297,.F.);
#191=ORIENTED_EDGE('',*,*,#235,.F.);
#192=ORIENTED_EDGE('',*,*,#251,.T.);
#193=ORIENTED_EDGE('',*,*,#298,.T.);
#194=ORIENTED_EDGE('',*,*,#299,.F.);
#195=ORIENTED_EDGE('',*,*,#298,.F.);
#196=ORIENTED_EDGE('',*,*,#250,.T.);
#197=ORIENTED_EDGE('',*,*,#230,.T.);
#198=ORIENTED_EDGE('',*,*,#299,.T.);
#199=ORIENTED_EDGE('',*,*,#300,.F.);
#200=ORIENTED_EDGE('',*,*,#294,.T.);
#201=ORIENTED_EDGE('',*,*,#301,.T.);
#202=ORIENTED_EDGE('',*,*,#295,.T.);
#203=ORIENTED_EDGE('',*,*,#300,.T.);
#204=ORIENTED_EDGE('',*,*,#229,.T.);
#205=ORIENTED_EDGE('',*,*,#302,.F.);
#206=ORIENTED_EDGE('',*,*,#296,.T.);
#207=ORIENTED_EDGE('',*,*,#302,.T.);
#208=ORIENTED_EDGE('',*,*,#233,.T.);
#209=ORIENTED_EDGE('',*,*,#303,.F.);
#210=ORIENTED_EDGE('',*,*,#293,.T.);
#211=ORIENTED_EDGE('',*,*,#303,.T.);
#212=ORIENTED_EDGE('',*,*,#297,.T.);
#213=ORIENTED_EDGE('',*,*,#301,.F.);
#214=EDGE_CURVE('',#304,#305,#360,.T.);
#215=EDGE_CURVE('',#306,#304,#361,.T.);
#216=EDGE_CURVE('',#307,#306,#362,.T.);
#217=EDGE_CURVE('',#305,#307,#363,.T.);
#218=EDGE_CURVE('',#308,#309,#364,.T.);
#219=EDGE_CURVE('',#309,#310,#365,.T.);
#220=EDGE_CURVE('',#311,#310,#366,.T.);
#221=EDGE_CURVE('',#308,#311,#367,.T.);
#222=EDGE_CURVE('',#312,#313,#368,.T.);
#223=EDGE_CURVE('',#312,#314,#369,.T.);
#224=EDGE_CURVE('',#314,#315,#370,.T.);
#225=EDGE_CURVE('',#315,#313,#371,.T.);
#226=EDGE_CURVE('',#316,#317,#372,.T.);
#227=EDGE_CURVE('',#310,#316,#373,.T.);
#228=EDGE_CURVE('',#309,#317,#374,.T.);
#229=EDGE_CURVE('',#318,#319,#375,.T.);
#230=EDGE_CURVE('',#320,#318,#376,.T.);
#231=EDGE_CURVE('',#320,#321,#377,.T.);
#232=EDGE_CURVE('',#321,#319,#378,.T.);
#233=EDGE_CURVE('',#319,#322,#379,.T.);
#234=EDGE_CURVE('',#321,#323,#380,.T.);
#235=EDGE_CURVE('',#323,#322,#381,.T.);
#236=EDGE_CURVE('',#324,#325,#382,.T.);
#237=EDGE_CURVE('',#326,#324,#383,.T.);
#238=EDGE_CURVE('',#325,#326,#384,.T.);
#239=EDGE_CURVE('',#327,#328,#385,.T.);
#240=EDGE_CURVE('',#325,#328,#386,.T.);
#241=EDGE_CURVE('',#326,#327,#387,.T.);
#242=EDGE_CURVE('',#329,#327,#388,.T.);
#243=EDGE_CURVE('',#329,#324,#389,.T.);
#244=EDGE_CURVE('',#329,#328,#390,.T.);
#245=EDGE_CURVE('',#314,#330,#391,.T.);
#246=EDGE_CURVE('',#330,#315,#392,.T.);
#247=EDGE_CURVE('',#331,#313,#393,.T.);
#248=EDGE_CURVE('',#330,#331,#394,.T.);
#249=EDGE_CURVE('',#312,#331,#395,.T.);
#250=EDGE_CURVE('',#332,#320,#396,.T.);
#251=EDGE_CURVE('',#323,#332,#397,.T.);
#252=EDGE_CURVE('',#317,#333,#20,.T.);
#253=EDGE_CURVE('',#334,#308,#398,.T.);
#254=EDGE_CURVE('',#335,#334,#21,.T.);
#255=EDGE_CURVE('',#335,#333,#399,.T.);
#256=EDGE_CURVE('',#334,#336,#400,.T.);
#257=EDGE_CURVE('',#336,#311,#401,.T.);
#258=EDGE_CURVE('',#337,#338,#22,.T.);
#259=EDGE_CURVE('',#337,#335,#402,.T.);
#260=EDGE_CURVE('',#336,#339,#23,.T.);
#261=EDGE_CURVE('',#339,#338,#403,.T.);
#262=EDGE_CURVE('',#338,#340,#404,.T.);
#263=EDGE_CURVE('',#341,#339,#405,.T.);
#264=EDGE_CURVE('',#340,#341,#406,.T.);
#265=EDGE_CURVE('',#340,#304,#24,.T.);
#266=EDGE_CURVE('',#341,#306,#25,.T.);
#267=EDGE_CURVE('',#307,#342,#26,.T.);
#268=EDGE_CURVE('',#343,#316,#27,.T.);
#269=EDGE_CURVE('',#343,#342,#407,.T.);
#270=EDGE_CURVE('',#305,#344,#28,.T.);
#271=EDGE_CURVE('',#342,#344,#408,.T.);
#272=EDGE_CURVE('',#344,#345,#409,.T.);
#273=EDGE_CURVE('',#345,#343,#410,.T.);
#274=EDGE_CURVE('',#345,#346,#29,.T.);
#275=EDGE_CURVE('',#333,#346,#411,.T.);
#276=EDGE_CURVE('',#346,#337,#412,.T.);
#277=EDGE_CURVE('',#347,#345,#413,.T.);
#278=EDGE_CURVE('',#347,#348,#414,.T.);
#279=EDGE_CURVE('',#344,#348,#415,.T.);
#280=EDGE_CURVE('',#349,#346,#416,.T.);
#281=EDGE_CURVE('',#349,#347,#30,.T.);
#282=EDGE_CURVE('',#350,#337,#417,.T.);
#283=EDGE_CURVE('',#350,#349,#418,.T.);
#284=EDGE_CURVE('',#351,#338,#419,.T.);
#285=EDGE_CURVE('',#351,#350,#31,.T.);
#286=EDGE_CURVE('',#352,#340,#420,.T.);
#287=EDGE_CURVE('',#352,#351,#421,.T.);
#288=EDGE_CURVE('',#353,#304,#422,.T.);
#289=EDGE_CURVE('',#353,#352,#32,.T.);
#290=EDGE_CURVE('',#354,#305,#423,.T.);
#291=EDGE_CURVE('',#354,#353,#424,.T.);
#292=EDGE_CURVE('',#348,#354,#33,.T.);
#293=EDGE_CURVE('',#355,#356,#425,.T.);
#294=EDGE_CURVE('',#357,#355,#426,.T.);
#295=EDGE_CURVE('',#358,#357,#427,.T.);
#296=EDGE_CURVE('',#356,#358,#428,.T.);
#297=EDGE_CURVE('',#322,#359,#429,.T.);
#298=EDGE_CURVE('',#332,#359,#430,.T.);
#299=EDGE_CURVE('',#359,#318,#431,.T.);
#300=EDGE_CURVE('',#357,#318,#432,.T.);
#301=EDGE_CURVE('',#355,#359,#433,.T.);
#302=EDGE_CURVE('',#358,#319,#434,.T.);
#303=EDGE_CURVE('',#356,#322,#435,.T.);
#304=VERTEX_POINT('',#914);
#305=VERTEX_POINT('',#915);
#306=VERTEX_POINT('',#917);
#307=VERTEX_POINT('',#919);
#308=VERTEX_POINT('',#923);
#309=VERTEX_POINT('',#924);
#310=VERTEX_POINT('',#926);
#311=VERTEX_POINT('',#928);
#312=VERTEX_POINT('',#932);
#313=VERTEX_POINT('',#933);
#314=VERTEX_POINT('',#935);
#315=VERTEX_POINT('',#937);
#316=VERTEX_POINT('',#940);
#317=VERTEX_POINT('',#941);
#318=VERTEX_POINT('',#946);
#319=VERTEX_POINT('',#947);
#320=VERTEX_POINT('',#949);
#321=VERTEX_POINT('',#951);
#322=VERTEX_POINT('',#955);
#323=VERTEX_POINT('',#957);
#324=VERTEX_POINT('',#961);
#325=VERTEX_POINT('',#962);
#326=VERTEX_POINT('',#964);
#327=VERTEX_POINT('',#968);
#328=VERTEX_POINT('',#969);
#329=VERTEX_POINT('',#974);
#330=VERTEX_POINT('',#980);
#331=VERTEX_POINT('',#984);
#332=VERTEX_POINT('',#991);
#333=VERTEX_POINT('',#994);
#334=VERTEX_POINT('',#996);
#335=VERTEX_POINT('',#998);
#336=VERTEX_POINT('',#1002);
#337=VERTEX_POINT('',#1006);
#338=VERTEX_POINT('',#1007);
#339=VERTEX_POINT('',#1010);
#340=VERTEX_POINT('',#1014);
#341=VERTEX_POINT('',#1016);
#342=VERTEX_POINT('',#1023);
#343=VERTEX_POINT('',#1025);
#344=VERTEX_POINT('',#1029);
#345=VERTEX_POINT('',#1033);
#346=VERTEX_POINT('',#1037);
#347=VERTEX_POINT('',#1043);
#348=VERTEX_POINT('',#1045);
#349=VERTEX_POINT('',#1049);
#350=VERTEX_POINT('',#1053);
#351=VERTEX_POINT('',#1057);
#352=VERTEX_POINT('',#1061);
#353=VERTEX_POINT('',#1065);
#354=VERTEX_POINT('',#1069);
#355=VERTEX_POINT('',#1075);
#356=VERTEX_POINT('',#1076);
#357=VERTEX_POINT('',#1078);
#358=VERTEX_POINT('',#1080);
#359=VERTEX_POINT('',#1084);
#360=LINE('',#913,#436);
#361=LINE('',#916,#437);
#362=LINE('',#918,#438);
#363=LINE('',#920,#439);
#364=LINE('',#922,#440);
#365=LINE('',#925,#441);
#366=LINE('',#927,#442);
#367=LINE('',#929,#443);
#368=LINE('',#931,#444);
#369=LINE('',#934,#445);
#370=LINE('',#936,#446);
#371=LINE('',#938,#447);
#372=LINE('',#939,#448);
#373=LINE('',#942,#449);
#374=LINE('',#943,#450);
#375=LINE('',#945,#451);
#376=LINE('',#948,#452);
#377=LINE('',#950,#453);
#378=LINE('',#952,#454);
#379=LINE('',#954,#455);
#380=LINE('',#956,#456);
#381=LINE('',#958,#457);
#382=LINE('',#960,#458);
#383=LINE('',#963,#459);
#384=LINE('',#965,#460);
#385=LINE('',#967,#461);
#386=LINE('',#970,#462);
#387=LINE('',#971,#463);
#388=LINE('',#973,#464);
#389=LINE('',#975,#465);
#390=LINE('',#977,#466);
#391=LINE('',#979,#467);
#392=LINE('',#981,#468);
#393=LINE('',#983,#469);
#394=LINE('',#985,#470);
#395=LINE('',#987,#471);
#396=LINE('',#990,#472);
#397=LINE('',#992,#473);
#398=LINE('',#995,#474);
#399=LINE('',#999,#475);
#400=LINE('',#1001,#476);
#401=LINE('',#1003,#477);
#402=LINE('',#1008,#478);
#403=LINE('',#1011,#479);
#404=LINE('',#1013,#480);
#405=LINE('',#1015,#481);
#406=LINE('',#1017,#482);
#407=LINE('',#1026,#483);
#408=LINE('',#1030,#484);
#409=LINE('',#1032,#485);
#410=LINE('',#1034,#486);
#411=LINE('',#1038,#487);
#412=LINE('',#1040,#488);
#413=LINE('',#1042,#489);
#414=LINE('',#1044,#490);
#415=LINE('',#1046,#491);
#416=LINE('',#1048,#492);
#417=LINE('',#1052,#493);
#418=LINE('',#1054,#494);
#419=LINE('',#1056,#495);
#420=LINE('',#1060,#496);
#421=LINE('',#1062,#497);
#422=LINE('',#1064,#498);
#423=LINE('',#1068,#499);
#424=LINE('',#1070,#500);
#425=LINE('',#1074,#501);
#426=LINE('',#1077,#502);
#427=LINE('',#1079,#503);
#428=LINE('',#1081,#504);
#429=LINE('',#1083,#505);
#430=LINE('',#1085,#506);
#431=LINE('',#1087,#507);
#432=LINE('',#1089,#508);
#433=LINE('',#1090,#509);
#434=LINE('',#1092,#510);
#435=LINE('',#1094,#511);
#436=VECTOR('',#733,1.);
#437=VECTOR('',#734,1.);
#438=VECTOR('',#735,1.);
#439=VECTOR('',#736,1.);
#440=VECTOR('',#739,1.);
#441=VECTOR('',#740,1.);
#442=VECTOR('',#741,1.);
#443=VECTOR('',#742,1.);
#444=VECTOR('',#745,1.);
#445=VECTOR('',#746,1.);
#446=VECTOR('',#747,1.);
#447=VECTOR('',#748,1.);
#448=VECTOR('',#749,1.);
#449=VECTOR('',#750,1.);
#450=VECTOR('',#751,1.);
#451=VECTOR('',#754,1.);
#452=VECTOR('',#755,1.);
#453=VECTOR('',#756,1.);
#454=VECTOR('',#757,1.);
#455=VECTOR('',#760,1.);
#456=VECTOR('',#761,1.);
#457=VECTOR('',#762,1.);
#458=VECTOR('',#765,1.);
#459=VECTOR('',#766,1.);
#460=VECTOR('',#767,1.);
#461=VECTOR('',#770,1.);
#462=VECTOR('',#771,1.);
#463=VECTOR('',#772,1.);
#464=VECTOR('',#775,1.);
#465=VECTOR('',#776,1.);
#466=VECTOR('',#779,1.);
#467=VECTOR('',#782,1.);
#468=VECTOR('',#783,1.);
#469=VECTOR('',#786,1.);
#470=VECTOR('',#787,1.);
#471=VECTOR('',#790,1.);
#472=VECTOR('',#795,1.);
#473=VECTOR('',#796,1.);
#474=VECTOR('',#799,1.);
#475=VECTOR('',#802,1.);
#476=VECTOR('',#805,1.);
#477=VECTOR('',#806,1.);
#478=VECTOR('',#811,1.);
#479=VECTOR('',#814,1.);
#480=VECTOR('',#817,1.);
#481=VECTOR('',#818,1.);
#482=VECTOR('',#819,1.);
#483=VECTOR('',#832,1.);
#484=VECTOR('',#837,1.);
#485=VECTOR('',#840,1.);
#486=VECTOR('',#841,1.);
#487=VECTOR('',#846,1.);
#488=VECTOR('',#849,1.);
#489=VECTOR('',#852,1.);
#490=VECTOR('',#853,1.);
#491=VECTOR('',#854,1.);
#492=VECTOR('',#857,1.);
#493=VECTOR('',#862,1.);
#494=VECTOR('',#863,1.);
#495=VECTOR('',#866,1.);
#496=VECTOR('',#871,1.);
#497=VECTOR('',#872,1.);
#498=VECTOR('',#875,1.);
#499=VECTOR('',#880,1.);
#500=VECTOR('',#881,1.);
#501=VECTOR('',#888,1.);
#502=VECTOR('',#889,1.);
#503=VECTOR('',#890,1.);
#504=VECTOR('',#891,1.);
#505=VECTOR('',#894,1.);
#506=VECTOR('',#895,1.);
#507=VECTOR('',#898,1.);
#508=VECTOR('',#901,1.);
#509=VECTOR('',#902,1.);
#510=VECTOR('',#905,1.);
#511=VECTOR('',#908,1.);
#512=EDGE_LOOP('',(#34,#35,#36,#37));
#513=EDGE_LOOP('',(#38,#39,#40,#41));
#514=EDGE_LOOP('',(#42,#43,#44,#45));
#515=EDGE_LOOP('',(#46,#47,#48,#49));
#516=EDGE_LOOP('',(#50,#51,#52,#53));
#517=EDGE_LOOP('',(#54,#55,#56,#57));
#518=EDGE_LOOP('',(#58,#59,#60));
#519=EDGE_LOOP('',(#61,#62,#63,#64));
#520=EDGE_LOOP('',(#65,#66,#67,#68));
#521=EDGE_LOOP('',(#69,#70,#71));
#522=EDGE_LOOP('',(#72,#73,#74));
#523=EDGE_LOOP('',(#75,#76,#77,#78));
#524=EDGE_LOOP('',(#79,#80,#81,#82));
#525=EDGE_LOOP('',(#83,#84,#85));
#526=EDGE_LOOP('',(#86,#87,#88,#89));
#527=EDGE_LOOP('',(#90,#91,#92,#93,#94,#95));
#528=EDGE_LOOP('',(#96,#97,#98,#99));
#529=EDGE_LOOP('',(#100,#101,#102,#103));
#530=EDGE_LOOP('',(#104,#105,#106,#107,#108,#109));
#531=EDGE_LOOP('',(#110,#111,#112,#113));
#532=EDGE_LOOP('',(#114,#115,#116,#117));
#533=EDGE_LOOP('',(#118,#119,#120,#121,#122,#123,#124,#125,#126,#127));
#534=EDGE_LOOP('',(#128,#129,#130,#131));
#535=EDGE_LOOP('',(#132,#133,#134,#135));
#536=EDGE_LOOP('',(#136,#137,#138,#139,#140,#141));
#537=EDGE_LOOP('',(#142,#143,#144,#145));
#538=EDGE_LOOP('',(#146,#147,#148,#149));
#539=EDGE_LOOP('',(#150,#151,#152,#153));
#540=EDGE_LOOP('',(#154,#155,#156,#157));
#541=EDGE_LOOP('',(#158,#159,#160,#161));
#542=EDGE_LOOP('',(#162,#163,#164,#165));
#543=EDGE_LOOP('',(#166,#167,#168,#169));
#544=EDGE_LOOP('',(#170,#171,#172,#173));
#545=EDGE_LOOP('',(#174,#175,#176,#177));
#546=EDGE_LOOP('',(#178,#179,#180,#181));
#547=EDGE_LOOP('',(#182,#183,#184,#185,#186,#187,#188,#189));
#548=EDGE_LOOP('',(#190,#191,#192,#193));
#549=EDGE_LOOP('',(#194,#195,#196,#197));
#550=EDGE_LOOP('',(#198,#199,#200,#201));
#551=EDGE_LOOP('',(#202,#203,#204,#205));
#552=EDGE_LOOP('',(#206,#207,#208,#209));
#553=EDGE_LOOP('',(#210,#211,#212,#213));
#554=FACE_BOUND('',#512,.T.);
#555=FACE_BOUND('',#513,.T.);
#556=FACE_BOUND('',#514,.T.);
#557=FACE_BOUND('',#515,.T.);
#558=FACE_BOUND('',#516,.T.);
#559=FACE_BOUND('',#517,.T.);
#560=FACE_BOUND('',#518,.T.);
#561=FACE_BOUND('',#519,.T.);
#562=FACE_BOUND('',#520,.T.);
#563=FACE_BOUND('',#521,.T.);
#564=FACE_BOUND('',#522,.T.);
#565=FACE_BOUND('',#523,.T.);
#566=FACE_BOUND('',#524,.T.);
#567=FACE_BOUND('',#525,.T.);
#568=FACE_BOUND('',#526,.T.);
#569=FACE_BOUND('',#527,.T.);
#570=FACE_BOUND('',#528,.T.);
#571=FACE_BOUND('',#529,.T.);
#572=FACE_BOUND('',#530,.T.);
#573=FACE_BOUND('',#531,.T.);
#574=FACE_BOUND('',#532,.T.);
#575=FACE_BOUND('',#533,.T.);
#576=FACE_BOUND('',#534,.T.);
#577=FACE_BOUND('',#535,.T.);
#578=FACE_BOUND('',#536,.T.);
#579=FACE_BOUND('',#537,.T.);
#580=FACE_BOUND('',#538,.T.);
#581=FACE_BOUND('',#539,.T.);
#582=FACE_BOUND('',#540,.T.);
#583=FACE_BOUND('',#541,.T.);
#584=FACE_BOUND('',#542,.T.);
#585=FACE_BOUND('',#543,.T.);
#586=FACE_BOUND('',#544,.T.);
#587=FACE_BOUND('',#545,.T.);
#588=FACE_BOUND('',#546,.T.);
#589=FACE_BOUND('',#547,.T.);
#590=FACE_BOUND('',#548,.T.);
#591=FACE_BOUND('',#549,.T.);
#592=FACE_BOUND('',#550,.T.);
#593=FACE_BOUND('',#551,.T.);
#594=FACE_BOUND('',#552,.T.);
#595=FACE_BOUND('',#553,.T.);
#596=PLANE('',#677);
#597=PLANE('',#678);
#598=PLANE('',#679);
#599=PLANE('',#680);
#600=PLANE('',#681);
#601=PLANE('',#682);
#602=PLANE('',#683);
#603=PLANE('',#684);
#604=PLANE('',#685);
#605=PLANE('',#686);
#606=PLANE('',#687);
#607=PLANE('',#688);
#608=PLANE('',#689);
#609=PLANE('',#690);
#610=PLANE('',#693);
#611=PLANE('',#697);
#612=PLANE('',#701);
#613=PLANE('',#706);
#614=PLANE('',#709);
#615=PLANE('',#710);
#616=PLANE('',#713);
#617=PLANE('',#716);
#618=PLANE('',#719);
#619=PLANE('',#722);
#620=PLANE('',#723);
#621=PLANE('',#724);
#622=PLANE('',#725);
#623=PLANE('',#726);
#624=PLANE('',#727);
#625=PLANE('',#728);
#626=ADVANCED_FACE('',(#554),#596,.T.);
#627=ADVANCED_FACE('',(#555),#597,.T.);
#628=ADVANCED_FACE('',(#556,#557),#598,.T.);
#629=ADVANCED_FACE('',(#558),#599,.T.);
#630=ADVANCED_FACE('',(#559),#600,.T.);
#631=ADVANCED_FACE('',(#560),#601,.F.);
#632=ADVANCED_FACE('',(#561),#602,.F.);
#633=ADVANCED_FACE('',(#562),#603,.F.);
#634=ADVANCED_FACE('',(#563),#604,.T.);
#635=ADVANCED_FACE('',(#564),#605,.F.);
#636=ADVANCED_FACE('',(#565),#606,.F.);
#637=ADVANCED_FACE('',(#566),#607,.F.);
#638=ADVANCED_FACE('',(#567),#608,.T.);
#639=ADVANCED_FACE('',(#568,#569),#609,.F.);
#640=ADVANCED_FACE('',(#570,#571),#610,.T.);
#641=ADVANCED_FACE('',(#572),#16,.T.);
#642=ADVANCED_FACE('',(#573),#611,.T.);
#643=ADVANCED_FACE('',(#574),#17,.T.);
#644=ADVANCED_FACE('',(#575),#612,.T.);
#645=ADVANCED_FACE('',(#576),#18,.T.);
#646=ADVANCED_FACE('',(#577),#613,.T.);
#647=ADVANCED_FACE('',(#578),#19,.T.);
#648=ADVANCED_FACE('',(#579),#614,.T.);
#649=ADVANCED_FACE('',(#580),#615,.T.);
#650=ADVANCED_FACE('',(#581),#12,.T.);
#651=ADVANCED_FACE('',(#582),#616,.T.);
#652=ADVANCED_FACE('',(#583),#13,.T.);
#653=ADVANCED_FACE('',(#584),#617,.T.);
#654=ADVANCED_FACE('',(#585),#14,.T.);
#655=ADVANCED_FACE('',(#586),#618,.T.);
#656=ADVANCED_FACE('',(#587),#15,.T.);
#657=ADVANCED_FACE('',(#588,#589),#619,.T.);
#658=ADVANCED_FACE('',(#590),#620,.T.);
#659=ADVANCED_FACE('',(#591),#621,.T.);
#660=ADVANCED_FACE('',(#592),#622,.T.);
#661=ADVANCED_FACE('',(#593),#623,.T.);
#662=ADVANCED_FACE('',(#594),#624,.T.);
#663=ADVANCED_FACE('',(#595),#625,.T.);
#664=CLOSED_SHELL('',(#626,#627,#628,#629,#630,#631,#632,#633,#634,#635,
#636,#637,#638,#639,#640,#641,#642,#643,#644,#645,#646,#647,#648,#649,#650,
#651,#652,#653,#654,#655,#656,#657,#658,#659,#660,#661,#662,#663));
#665=STYLED_ITEM('',(#666),#673);
#666=PRESENTATION_STYLE_ASSIGNMENT((#667));
#667=SURFACE_STYLE_USAGE(.BOTH.,#668);
#668=SURFACE_SIDE_STYLE('',(#669));
#669=SURFACE_STYLE_FILL_AREA(#670);
#670=FILL_AREA_STYLE('',(#671));
#671=FILL_AREA_STYLE_COLOUR('',#672);
#672=COLOUR_RGB('',0.325490196078431,0.529411764705882,0.752941176470588);
#673=MANIFOLD_SOLID_BREP('Lid',#664);
#674=SHAPE_DEFINITION_REPRESENTATION(#1102,#675);
#675=SHAPE_REPRESENTATION('Lid',(#676),#1097);
#676=AXIS2_PLACEMENT_3D('',#911,#729,#730);
#677=AXIS2_PLACEMENT_3D('',#912,#731,#732);
#678=AXIS2_PLACEMENT_3D('',#921,#737,#738);
#679=AXIS2_PLACEMENT_3D('',#930,#743,#744);
#680=AXIS2_PLACEMENT_3D('',#944,#752,#753);
#681=AXIS2_PLACEMENT_3D('',#953,#758,#759);
#682=AXIS2_PLACEMENT_3D('',#959,#763,#764);
#683=AXIS2_PLACEMENT_3D('',#966,#768,#769);
#684=AXIS2_PLACEMENT_3D('',#972,#773,#774);
#685=AXIS2_PLACEMENT_3D('',#976,#777,#778);
#686=AXIS2_PLACEMENT_3D('',#978,#780,#781);
#687=AXIS2_PLACEMENT_3D('',#982,#784,#785);
#688=AXIS2_PLACEMENT_3D('',#986,#788,#789);
#689=AXIS2_PLACEMENT_3D('',#988,#791,#792);
#690=AXIS2_PLACEMENT_3D('',#989,#793,#794);
#691=AXIS2_PLACEMENT_3D('',#993,#797,#798);
#692=AXIS2_PLACEMENT_3D('',#997,#800,#801);
#693=AXIS2_PLACEMENT_3D('',#1000,#803,#804);
#694=AXIS2_PLACEMENT_3D('',#1004,#807,#808);
#695=AXIS2_PLACEMENT_3D('',#1005,#809,#810);
#696=AXIS2_PLACEMENT_3D('',#1009,#812,#813);
#697=AXIS2_PLACEMENT_3D('',#1012,#815,#816);
#698=AXIS2_PLACEMENT_3D('',#1018,#820,#821);
#699=AXIS2_PLACEMENT_3D('',#1019,#822,#823);
#700=AXIS2_PLACEMENT_3D('',#1020,#824,#825);
#701=AXIS2_PLACEMENT_3D('',#1021,#826,#827);
#702=AXIS2_PLACEMENT_3D('',#1022,#828,#829);
#703=AXIS2_PLACEMENT_3D('',#1024,#830,#831);
#704=AXIS2_PLACEMENT_3D('',#1027,#833,#834);
#705=AXIS2_PLACEMENT_3D('',#1028,#835,#836);
#706=AXIS2_PLACEMENT_3D('',#1031,#838,#839);
#707=AXIS2_PLACEMENT_3D('',#1035,#842,#843);
#708=AXIS2_PLACEMENT_3D('',#1036,#844,#845);
#709=AXIS2_PLACEMENT_3D('',#1039,#847,#848);
#710=AXIS2_PLACEMENT_3D('',#1041,#850,#851);
#711=AXIS2_PLACEMENT_3D('',#1047,#855,#856);
#712=AXIS2_PLACEMENT_3D('',#1050,#858,#859);
#713=AXIS2_PLACEMENT_3D('',#1051,#860,#861);
#714=AXIS2_PLACEMENT_3D('',#1055,#864,#865);
#715=AXIS2_PLACEMENT_3D('',#1058,#867,#868);
#716=AXIS2_PLACEMENT_3D('',#1059,#869,#870);
#717=AXIS2_PLACEMENT_3D('',#1063,#873,#874);
#718=AXIS2_PLACEMENT_3D('',#1066,#876,#877);
#719=AXIS2_PLACEMENT_3D('',#1067,#878,#879);
#720=AXIS2_PLACEMENT_3D('',#1071,#882,#883);
#721=AXIS2_PLACEMENT_3D('',#1072,#884,#885);
#722=AXIS2_PLACEMENT_3D('',#1073,#886,#887);
#723=AXIS2_PLACEMENT_3D('',#1082,#892,#893);
#724=AXIS2_PLACEMENT_3D('',#1086,#896,#897);
#725=AXIS2_PLACEMENT_3D('',#1088,#899,#900);
#726=AXIS2_PLACEMENT_3D('',#1091,#903,#904);
#727=AXIS2_PLACEMENT_3D('',#1093,#906,#907);
#728=AXIS2_PLACEMENT_3D('',#1095,#909,#910);
#729=DIRECTION('',(0.,0.,1.));
#730=DIRECTION('',(1.,0.,0.));
#731=DIRECTION('',(0.,1.,0.));
#732=DIRECTION('',(1.,0.,0.));
#733=DIRECTION('',(-1.,0.,0.));
#734=DIRECTION('',(0.,0.,1.));
#735=DIRECTION('',(1.,0.,0.));
#736=DIRECTION('',(0.,0.,-1.));
#737=DIRECTION('',(0.,-1.,0.));
#738=DIRECTION('',(-1.,0.,0.));
#739=DIRECTION('',(-1.,0.,0.));
#740=DIRECTION('',(0.,0.,-1.));
#741=DIRECTION('',(-1.,0.,0.));
#742=DIRECTION('',(0.,0.,-1.));
#743=DIRECTION('',(1.,0.,0.));
#744=DIRECTION('',(0.,-1.,0.));
#745=DIRECTION('',(0.,0.,-1.));
#746=DIRECTION('',(0.,1.,5.91688627464956E-17));
#747=DIRECTION('',(0.,0.,-1.));
#748=DIRECTION('',(0.,-1.,5.91688627464956E-17));
#749=DIRECTION('',(0.,0.,1.));
#750=DIRECTION('',(0.,-1.,0.));
#751=DIRECTION('',(0.,-1.,0.));
#752=DIRECTION('',(0.,1.,0.));
#753=DIRECTION('',(-1.,0.,0.));
#754=DIRECTION('',(-1.,0.,0.));
#755=DIRECTION('',(0.,0.,1.));
#756=DIRECTION('',(-1.,0.,0.));
#757=DIRECTION('',(0.,0.,1.));
#758=DIRECTION('',(1.,0.,0.));
#759=DIRECTION('',(0.,1.,0.));
#760=DIRECTION('',(0.,1.,0.));
#761=DIRECTION('',(0.,1.,0.));
#762=DIRECTION('',(0.,0.,1.));
#763=DIRECTION('',(-5.91688627464957E-17,1.,0.));
#764=DIRECTION('',(0.,0.,1.));
#765=DIRECTION('',(0.,0.,1.));
#766=DIRECTION('',(-0.707106781186551,0.,-0.707106781186544));
#767=DIRECTION('',(0.707106781186548,0.,-0.707106781186547));
#768=DIRECTION('',(0.707106781186548,0.,0.707106781186548));
#769=DIRECTION('',(0.707106781186548,4.32022296021479E-17,-0.707106781186548));
#770=DIRECTION('',(-0.707106781186548,0.,0.707106781186547));
#771=DIRECTION('',(0.,-1.,0.));
#772=DIRECTION('',(0.,-1.,0.));
#773=DIRECTION('',(0.707106781186548,0.,-0.707106781186548));
#774=DIRECTION('',(-0.707106781186548,-4.32022296021481E-17,-0.707106781186548));
#775=DIRECTION('',(0.707106781186551,0.,0.707106781186544));
#776=DIRECTION('',(0.,1.,0.));
#777=DIRECTION('',(-6.93889390390723E-17,1.,0.));
#778=DIRECTION('',(0.,0.,1.));
#779=DIRECTION('',(0.,0.,1.));
#780=DIRECTION('',(-5.91688627464957E-17,1.,0.));
#781=DIRECTION('',(0.,0.,1.));
#782=DIRECTION('',(-0.707106781186548,-4.18387040831432E-17,-0.707106781186547));
#783=DIRECTION('',(0.707106781186548,4.18387040831432E-17,-0.707106781186547));
#784=DIRECTION('',(-0.707106781186548,0.,-0.707106781186548));
#785=DIRECTION('',(-0.707106781186548,-4.32022296021479E-17,0.707106781186548));
#786=DIRECTION('',(0.707106781186548,4.9065389333868E-17,-0.707106781186547));
#787=DIRECTION('',(5.91688627464957E-17,-1.,0.));
#788=DIRECTION('',(-0.707106781186548,0.,0.707106781186548));
#789=DIRECTION('',(0.707106781186548,4.32022296021479E-17,0.707106781186548));
#790=DIRECTION('',(-0.707106781186548,-4.9065389333868E-17,-0.707106781186547));
#791=DIRECTION('',(-6.93889390390723E-17,1.,0.));
#792=DIRECTION('',(0.,0.,1.));
#793=DIRECTION('',(0.,0.,1.));
#794=DIRECTION('',(-1.,0.,0.));
#795=DIRECTION('',(0.,-1.,0.));
#796=DIRECTION('',(1.,0.,0.));
#797=DIRECTION('',(0.,0.,1.));
#798=DIRECTION('',(-0.707106781186548,-0.707106781186547,0.));
#799=DIRECTION('',(0.,1.,0.));
#800=DIRECTION('',(0.,0.,1.));
#801=DIRECTION('',(0.707106781186547,-0.707106781186548,0.));
#802=DIRECTION('',(-1.,1.30922526488816E-17,0.));
#803=DIRECTION('',(-1.,0.,0.));
#804=DIRECTION('',(0.,1.,0.));
#805=DIRECTION('',(0.,0.,-1.));
#806=DIRECTION('',(0.,1.,0.));
#807=DIRECTION('',(0.,0.,1.));
#808=DIRECTION('',(0.707106781186547,-0.707106781186548,0.));
#809=DIRECTION('',(0.,0.,1.));
#810=DIRECTION('',(0.707106781186547,-0.707106781186548,0.));
#811=DIRECTION('',(0.,0.,-1.));
#812=DIRECTION('',(0.,0.,1.));
#813=DIRECTION('',(0.707106781186547,-0.707106781186548,0.));
#814=DIRECTION('',(0.,0.,1.));
#815=DIRECTION('',(1.,0.,0.));
#816=DIRECTION('',(0.,-1.,0.));
#817=DIRECTION('',(0.,1.,0.));
#818=DIRECTION('',(0.,-1.,0.));
#819=DIRECTION('',(0.,0.,-1.));
#820=DIRECTION('',(0.,0.,1.));
#821=DIRECTION('',(0.707106781186548,0.707106781186548,0.));
#822=DIRECTION('',(0.,0.,1.));
#823=DIRECTION('',(0.707106781186548,0.707106781186548,0.));
#824=DIRECTION('',(0.,0.,1.));
#825=DIRECTION('',(0.707106781186548,0.707106781186548,0.));
#826=DIRECTION('',(0.,0.,-1.));
#827=DIRECTION('',(-1.,0.,0.));
#828=DIRECTION('',(0.,0.,1.));
#829=DIRECTION('',(-0.707106781186548,0.707106781186548,0.));
#830=DIRECTION('',(0.,0.,1.));
#831=DIRECTION('',(-0.707106781186548,-0.707106781186547,0.));
#832=DIRECTION('',(0.,1.,0.));
#833=DIRECTION('',(0.,0.,1.));
#834=DIRECTION('',(-0.707106781186548,0.707106781186548,0.));
#835=DIRECTION('',(0.,0.,1.));
#836=DIRECTION('',(-0.707106781186548,0.707106781186548,0.));
#837=DIRECTION('',(0.,0.,1.));
#838=DIRECTION('',(-1.,0.,0.));
#839=DIRECTION('',(0.,1.,0.));
#840=DIRECTION('',(0.,-1.,0.));
#841=DIRECTION('',(0.,0.,-1.));
#842=DIRECTION('',(0.,0.,-1.));
#843=DIRECTION('',(-0.707106781186548,-0.707106781186547,0.));
#844=DIRECTION('',(0.,0.,1.));
#845=DIRECTION('',(-0.707106781186548,-0.707106781186547,0.));
#846=DIRECTION('',(0.,0.,1.));
#847=DIRECTION('',(-1.30922526488816E-17,-1.,0.));
#848=DIRECTION('',(-1.,1.30922526488816E-17,0.));
#849=DIRECTION('',(1.,-1.30922526488816E-17,0.));
#850=DIRECTION('',(-0.707106781186548,0.,0.707106781186548));
#851=DIRECTION('',(0.707106781186548,0.,0.707106781186548));
#852=DIRECTION('',(-0.707106781186548,0.,-0.707106781186547));
#853=DIRECTION('',(0.,1.,0.));
#854=DIRECTION('',(0.707106781186547,0.,0.707106781186549));
#855=DIRECTION('',(0.,0.,-1.));
#856=DIRECTION('',(-0.707106781186548,-0.707106781186547,0.));
#857=DIRECTION('',(1.93194970502105E-15,-0.707106781186548,-0.707106781186547));
#858=DIRECTION('',(0.,0.,-1.));
#859=DIRECTION('',(-0.707106781186548,-0.707106781186547,0.));
#860=DIRECTION('',(0.,-0.707106781186548,0.707106781186548));
#861=DIRECTION('',(1.,6.5461263244408E-18,6.5461263244408E-18));
#862=DIRECTION('',(0.,-0.707106781186547,-0.707106781186548));
#863=DIRECTION('',(-1.,1.30922526488816E-17,0.));
#864=DIRECTION('',(0.,0.,-1.));
#865=DIRECTION('',(0.707106781186547,-0.707106781186548,0.));
#866=DIRECTION('',(0.707106781186548,0.,-0.707106781186547));
#867=DIRECTION('',(0.,0.,-1.));
#868=DIRECTION('',(0.707106781186547,-0.707106781186548,0.));
#869=DIRECTION('',(0.707106781186548,0.,0.707106781186548));
#870=DIRECTION('',(0.707106781186548,0.,-0.707106781186548));
#871=DIRECTION('',(0.707106781186548,0.,-0.707106781186547));
#872=DIRECTION('',(0.,-1.,0.));
#873=DIRECTION('',(0.,0.,-1.));
#874=DIRECTION('',(0.707106781186548,0.707106781186548,0.));
#875=DIRECTION('',(0.,0.707106781186548,-0.707106781186547));
#876=DIRECTION('',(0.,0.,-1.));
#877=DIRECTION('',(0.707106781186548,0.707106781186548,0.));
#878=DIRECTION('',(0.,0.707106781186548,0.707106781186548));
#879=DIRECTION('',(1.,0.,0.));
#880=DIRECTION('',(1.2266347333467E-16,0.707106781186548,-0.707106781186547));
#881=DIRECTION('',(1.,0.,0.));
#882=DIRECTION('',(0.,0.,-1.));
#883=DIRECTION('',(-0.707106781186548,0.707106781186548,0.));
#884=DIRECTION('',(0.,0.,-1.));
#885=DIRECTION('',(-0.707106781186548,0.707106781186548,0.));
#886=DIRECTION('',(0.,0.,1.));
#887=DIRECTION('',(1.,0.,0.));
#888=DIRECTION('',(-1.,0.,0.));
#889=DIRECTION('',(0.,1.,0.));
#890=DIRECTION('',(1.,0.,0.));
#891=DIRECTION('',(0.,-1.,0.));
#892=DIRECTION('',(0.,-1.,0.));
#893=DIRECTION('',(1.,0.,0.));
#894=DIRECTION('',(1.,0.,0.));
#895=DIRECTION('',(0.,0.,1.));
#896=DIRECTION('',(-1.,0.,0.));
#897=DIRECTION('',(0.,-1.,0.));
#898=DIRECTION('',(0.,-1.,0.));
#899=DIRECTION('',(-0.707106781186548,0.,0.707106781186548));
#900=DIRECTION('',(0.707106781186548,0.,0.707106781186548));
#901=DIRECTION('',(-0.577350269189626,0.577350269189626,-0.577350269189625));
#902=DIRECTION('',(-0.577350269189626,-0.577350269189626,-0.577350269189625));
#903=DIRECTION('',(0.,0.707106781186548,0.707106781186548));
#904=DIRECTION('',(1.,0.,0.));
#905=DIRECTION('',(0.577350269189626,0.577350269189626,-0.577350269189626));
#906=DIRECTION('',(0.707106781186548,0.,0.707106781186548));
#907=DIRECTION('',(0.707106781186548,0.,-0.707106781186548));
#908=DIRECTION('',(0.577350269189626,-0.577350269189626,-0.577350269189625));
#909=DIRECTION('',(0.,-0.707106781186548,0.707106781186548));
#910=DIRECTION('',(1.,0.,0.));
#911=CARTESIAN_POINT('',(0.,0.,0.));
#912=CARTESIAN_POINT('',(0.,-0.0017,0.0036));
#913=CARTESIAN_POINT('',(0.00795,-0.0017,0.004));
#914=CARTESIAN_POINT('',(0.0293,-0.0017,0.004));
#915=CARTESIAN_POINT('',(0.0025,-0.0017,0.004));
#916=CARTESIAN_POINT('',(0.0293,-0.0017,0.0036));
#917=CARTESIAN_POINT('',(0.0293,-0.0017,0.));
#918=CARTESIAN_POINT('',(0.,-0.0017,0.));
#919=CARTESIAN_POINT('',(0.0025,-0.0017,0.));
#920=CARTESIAN_POINT('',(0.0025,-0.0017,0.0036));
#921=CARTESIAN_POINT('',(0.0307,-0.0028,0.0036));
#922=CARTESIAN_POINT('',(0.0307,-0.0028,0.0036));
#923=CARTESIAN_POINT('',(0.0307,-0.0028,0.0036));
#924=CARTESIAN_POINT('',(0.0011,-0.0028,0.0036));
#925=CARTESIAN_POINT('',(0.0011,-0.0028,0.0036));
#926=CARTESIAN_POINT('',(0.0011,-0.0028,0.));
#927=CARTESIAN_POINT('',(0.0307,-0.0028,0.));
#928=CARTESIAN_POINT('',(0.0307,-0.0028,0.));
#929=CARTESIAN_POINT('',(0.0307,-0.0028,0.0036));
#930=CARTESIAN_POINT('',(0.0011,-0.0028,0.0036));
#931=CARTESIAN_POINT('',(0.0011,-0.0289,0.00264999998100102));
#932=CARTESIAN_POINT('',(0.0011,-0.0289,0.00244142129365243));
#933=CARTESIAN_POINT('',(0.0011,-0.0289,0.000958578630351643));
#934=CARTESIAN_POINT('',(0.0011,-0.0178,0.00244142129365243));
#935=CARTESIAN_POINT('',(0.0011,-0.0069,0.00244142129365243));
#936=CARTESIAN_POINT('',(0.0011,-0.0069,0.00264999998100102));
#937=CARTESIAN_POINT('',(0.0011,-0.0069,0.000958578630351642));
#938=CARTESIAN_POINT('',(0.0011,-0.0178,0.000958578630351645));
#939=CARTESIAN_POINT('',(0.0011,-0.0323712315177208,0.0036));
#940=CARTESIAN_POINT('',(0.0011,-0.0323712315177208,0.));
#941=CARTESIAN_POINT('',(0.0011,-0.0323712315177208,0.0036));
#942=CARTESIAN_POINT('',(0.0011,-0.0028,0.));
#943=CARTESIAN_POINT('',(0.0011,-0.0028,0.0036));
#944=CARTESIAN_POINT('',(0.0279,-0.0216,0.0036));
#945=CARTESIAN_POINT('',(0.0219,-0.0216,0.004));
#946=CARTESIAN_POINT('',(0.0279,-0.0216,0.004));
#947=CARTESIAN_POINT('',(0.0039,-0.0216,0.004));
#948=CARTESIAN_POINT('',(0.0279,-0.0216,0.0036));
#949=CARTESIAN_POINT('',(0.0279,-0.0216,0.0036));
#950=CARTESIAN_POINT('',(0.0279,-0.0216,0.0036));
#951=CARTESIAN_POINT('',(0.0039,-0.0216,0.0036));
#952=CARTESIAN_POINT('',(0.0039,-0.0216,0.0036));
#953=CARTESIAN_POINT('',(0.0039,-0.0216,0.0036));
#954=CARTESIAN_POINT('',(0.0039,-0.019425,0.004));
#955=CARTESIAN_POINT('',(0.0039,-0.0086,0.004));
#956=CARTESIAN_POINT('',(0.0039,-0.0216,0.0036));
#957=CARTESIAN_POINT('',(0.0039,-0.0086,0.0036));
#958=CARTESIAN_POINT('',(0.0039,-0.0086,0.0036));
#959=CARTESIAN_POINT('',(0.00080000002458691,-0.0069,0.00169999996200204));
#960=CARTESIAN_POINT('',(0.0307,-0.0069,0.00264999998100101));
#961=CARTESIAN_POINT('',(0.0307,-0.0069,0.000958578630351663));
#962=CARTESIAN_POINT('',(0.0307,-0.0069,0.00244142129365239));
#963=CARTESIAN_POINT('',(0.0312957106535317,-0.0069,0.00155428928388337));
#964=CARTESIAN_POINT('',(0.0314414213316504,-0.0069,0.00169999996200202));
#965=CARTESIAN_POINT('',(0.0309957106535317,-0.0069,0.00214571064012068));
#966=CARTESIAN_POINT('',(0.0307707106535317,-0.0328,0.00237071064012068));
#967=CARTESIAN_POINT('',(0.0309957106535317,-0.0289,0.00214571064012068));
#968=CARTESIAN_POINT('',(0.0314414213316504,-0.0289,0.00169999996200202));
#969=CARTESIAN_POINT('',(0.0307,-0.0289,0.00244142129365239));
#970=CARTESIAN_POINT('',(0.0307,-0.0328,0.00244142129365242));
#971=CARTESIAN_POINT('',(0.0314414213316504,-0.0328,0.00169999996200202));
#972=CARTESIAN_POINT('',(0.0313707106535317,-0.0328,0.00162928928388337));
#973=CARTESIAN_POINT('',(0.0312957106535317,-0.0289,0.00155428928388337));
#974=CARTESIAN_POINT('',(0.0307,-0.0289,0.000958578630351663));
#975=CARTESIAN_POINT('',(0.0307,-0.0328,0.000958578630351639));
#976=CARTESIAN_POINT('',(0.00080000002458692,-0.0289,0.00169999996200204));
#977=CARTESIAN_POINT('',(0.0307,-0.0289,0.00264999998100101));
#978=CARTESIAN_POINT('',(0.00080000002458691,-0.0069,0.00169999996200204));
#979=CARTESIAN_POINT('',(0.00050428934646826,-0.0069,0.00184571064012069));
#980=CARTESIAN_POINT('',(0.000358578668349605,-0.0069,0.00169999996200204));
#981=CARTESIAN_POINT('',(0.00080428934646826,-0.0069,0.00125428928388338));
#982=CARTESIAN_POINT('',(0.00102928934646826,-0.0328,0.00102928928388339));
#983=CARTESIAN_POINT('',(0.00080428934646826,-0.0289,0.00125428928388338));
#984=CARTESIAN_POINT('',(0.00035857866834961,-0.0289,0.00169999996200204));
#985=CARTESIAN_POINT('',(0.00035857866834961,-0.0328,0.00169999996200204));
#986=CARTESIAN_POINT('',(0.00042928934646826,-0.0328,0.00177071064012069));
#987=CARTESIAN_POINT('',(0.00050428934646826,-0.0289,0.00184571064012069));
#988=CARTESIAN_POINT('',(0.00080000002458692,-0.0289,0.00169999996200204));
#989=CARTESIAN_POINT('',(0.0159,-0.01725,0.0036));
#990=CARTESIAN_POINT('',(0.0279,-0.0086,0.0036));
#991=CARTESIAN_POINT('',(0.0279,-0.0086,0.0036));
#992=CARTESIAN_POINT('',(0.0039,-0.0086,0.0036));
#993=CARTESIAN_POINT('',(0.0025,-0.0303,0.0036));
#994=CARTESIAN_POINT('',(0.0025,-0.0328,0.0036));
#995=CARTESIAN_POINT('',(0.0307,-0.0328,0.0036));
#996=CARTESIAN_POINT('',(0.0307,-0.0323712315177208,0.0036));
#997=CARTESIAN_POINT('',(0.0293,-0.0303,0.0036));
#998=CARTESIAN_POINT('',(0.0293,-0.0328,0.0036));
#999=CARTESIAN_POINT('',(0.0318,-0.0328,0.0036));
#1000=CARTESIAN_POINT('',(0.0307,-0.0328,0.0036));
#1001=CARTESIAN_POINT('',(0.0307,-0.0323712315177208,0.0036));
#1002=CARTESIAN_POINT('',(0.0307,-0.0323712315177208,0.));
#1003=CARTESIAN_POINT('',(0.0307,-0.0328,0.));
#1004=CARTESIAN_POINT('',(0.0293,-0.0303,0.0036));
#1005=CARTESIAN_POINT('',(0.0293,-0.0303,0.004));
#1006=CARTESIAN_POINT('',(0.0293,-0.0328,0.004));
#1007=CARTESIAN_POINT('',(0.0318,-0.0303,0.004));
#1008=CARTESIAN_POINT('',(0.0293,-0.0328,0.0036));
#1009=CARTESIAN_POINT('',(0.0293,-0.0303,0.));
#1010=CARTESIAN_POINT('',(0.0318,-0.0303,0.));
#1011=CARTESIAN_POINT('',(0.0318,-0.0303,0.0036));
#1012=CARTESIAN_POINT('',(0.0318,-0.0017,0.0036));
#1013=CARTESIAN_POINT('',(0.0318,-0.009475,0.004));
#1014=CARTESIAN_POINT('',(0.0318,-0.0042,0.004));
#1015=CARTESIAN_POINT('',(0.0318,-0.0017,0.));
#1016=CARTESIAN_POINT('',(0.0318,-0.0042,0.));
#1017=CARTESIAN_POINT('',(0.0318,-0.0042,0.0036));
#1018=CARTESIAN_POINT('',(0.0293,-0.0042,0.0036));
#1019=CARTESIAN_POINT('',(0.0293,-0.0042,0.004));
#1020=CARTESIAN_POINT('',(0.0293,-0.0042,0.));
#1021=CARTESIAN_POINT('',(0.0159,-0.01725,0.));
#1022=CARTESIAN_POINT('',(0.0025,-0.0042,0.));
#1023=CARTESIAN_POINT('',(0.,-0.0042,0.));
#1024=CARTESIAN_POINT('',(0.0025,-0.0303,0.));
#1025=CARTESIAN_POINT('',(0.,-0.0303,0.));
#1026=CARTESIAN_POINT('',(0.,-0.0328,0.));
#1027=CARTESIAN_POINT('',(0.0025,-0.0042,0.0036));
#1028=CARTESIAN_POINT('',(0.0025,-0.0042,0.004));
#1029=CARTESIAN_POINT('',(0.,-0.0042,0.004));
#1030=CARTESIAN_POINT('',(0.,-0.0042,0.0036));
#1031=CARTESIAN_POINT('',(0.,-0.0328,0.0036));
#1032=CARTESIAN_POINT('',(0.,-0.025025,0.004));
#1033=CARTESIAN_POINT('',(0.,-0.0303,0.004));
#1034=CARTESIAN_POINT('',(0.,-0.0303,0.0036));
#1035=CARTESIAN_POINT('',(0.0025,-0.0303,0.0036));
#1036=CARTESIAN_POINT('',(0.0025,-0.0303,0.004));
#1037=CARTESIAN_POINT('',(0.0025,-0.0328,0.004));
#1038=CARTESIAN_POINT('',(0.0025,-0.0328,0.0036));
#1039=CARTESIAN_POINT('',(0.0318,-0.0328,0.0036));
#1040=CARTESIAN_POINT('',(0.02385,-0.0328,0.004));
#1041=CARTESIAN_POINT('',(0.0004,-0.025025,0.0044));
#1042=CARTESIAN_POINT('',(0.0008,-0.0303,0.0048));
#1043=CARTESIAN_POINT('',(0.0008,-0.0303,0.0048));
#1044=CARTESIAN_POINT('',(0.0008,-0.025025,0.0048));
#1045=CARTESIAN_POINT('',(0.0008,-0.0042,0.0048));
#1046=CARTESIAN_POINT('',(0.,-0.0042,0.004));
#1047=CARTESIAN_POINT('',(0.0025,-0.0303,0.0044));
#1048=CARTESIAN_POINT('',(0.0025,-0.032,0.0048));
#1049=CARTESIAN_POINT('',(0.0025,-0.032,0.0048));
#1050=CARTESIAN_POINT('',(0.0025,-0.0303,0.0048));
#1051=CARTESIAN_POINT('',(0.02385,-0.0324,0.0044));
#1052=CARTESIAN_POINT('',(0.0293,-0.032,0.0048));
#1053=CARTESIAN_POINT('',(0.0293,-0.032,0.0048));
#1054=CARTESIAN_POINT('',(0.02385,-0.032,0.0048));
#1055=CARTESIAN_POINT('',(0.0293,-0.0303,0.0044));
#1056=CARTESIAN_POINT('',(0.031,-0.0303,0.0048));
#1057=CARTESIAN_POINT('',(0.031,-0.0303,0.0048));
#1058=CARTESIAN_POINT('',(0.0293,-0.0303,0.0048));
#1059=CARTESIAN_POINT('',(0.0314,-0.009475,0.0044));
#1060=CARTESIAN_POINT('',(0.031,-0.0042,0.0048));
#1061=CARTESIAN_POINT('',(0.031,-0.0042,0.0048));
#1062=CARTESIAN_POINT('',(0.031,-0.009475,0.0048));
#1063=CARTESIAN_POINT('',(0.0293,-0.0042,0.0044));
#1064=CARTESIAN_POINT('',(0.0293,-0.0025,0.0048));
#1065=CARTESIAN_POINT('',(0.0293,-0.0025,0.0048));
#1066=CARTESIAN_POINT('',(0.0293,-0.0042,0.0048));
#1067=CARTESIAN_POINT('',(0.00795,-0.0021,0.0044));
#1068=CARTESIAN_POINT('',(0.0025,-0.0025,0.0048));
#1069=CARTESIAN_POINT('',(0.0025,-0.0025,0.0048));
#1070=CARTESIAN_POINT('',(0.00795,-0.0025,0.0048));
#1071=CARTESIAN_POINT('',(0.0025,-0.0042,0.0044));
#1072=CARTESIAN_POINT('',(0.0025,-0.0042,0.0048));
#1073=CARTESIAN_POINT('',(0.0159,-0.01725,0.0048));
#1074=CARTESIAN_POINT('',(0.0099,-0.0078,0.0048));
#1075=CARTESIAN_POINT('',(0.0287,-0.0078,0.0048));
#1076=CARTESIAN_POINT('',(0.0031,-0.0078,0.0048));
#1077=CARTESIAN_POINT('',(0.0287,-0.012925,0.0048));
#1078=CARTESIAN_POINT('',(0.0287,-0.0224,0.0048));
#1079=CARTESIAN_POINT('',(0.0219,-0.0224,0.0048));
#1080=CARTESIAN_POINT('',(0.0031,-0.0224,0.0048));
#1081=CARTESIAN_POINT('',(0.0031,-0.019425,0.0048));
#1082=CARTESIAN_POINT('',(0.0039,-0.0086,0.0036));
#1083=CARTESIAN_POINT('',(0.0099,-0.0086,0.004));
#1084=CARTESIAN_POINT('',(0.0279,-0.0086,0.004));
#1085=CARTESIAN_POINT('',(0.0279,-0.0086,0.0036));
#1086=CARTESIAN_POINT('',(0.0279,-0.0086,0.0036));
#1087=CARTESIAN_POINT('',(0.0279,-0.012925,0.004));
#1088=CARTESIAN_POINT('',(0.0283,-0.012925,0.0044));
#1089=CARTESIAN_POINT('',(0.0287,-0.0224,0.0048));
#1090=CARTESIAN_POINT('',(0.0287,-0.0078,0.0048));
#1091=CARTESIAN_POINT('',(0.0219,-0.022,0.0044));
#1092=CARTESIAN_POINT('',(0.0031,-0.0224,0.0048));
#1093=CARTESIAN_POINT('',(0.0035,-0.019425,0.0044));
#1094=CARTESIAN_POINT('',(0.0031,-0.0078,0.0048));
#1095=CARTESIAN_POINT('',(0.0099,-0.0082,0.0044));
#1096=MECHANICAL_DESIGN_GEOMETRIC_PRESENTATION_REPRESENTATION('',(#665),
#1097);
#1097=(
GEOMETRIC_REPRESENTATION_CONTEXT(3)
GLOBAL_UNCERTAINTY_ASSIGNED_CONTEXT((#1098))
GLOBAL_UNIT_ASSIGNED_CONTEXT((#1101,#1100,#1099))
REPRESENTATION_CONTEXT('Lid','TOP_LEVEL_ASSEMBLY_PART')
);
#1098=UNCERTAINTY_MEASURE_WITH_UNIT(LENGTH_MEASURE(1.E-6),#1101,
'DISTANCE_ACCURACY_VALUE','Maximum Tolerance applied to model');
#1099=(
NAMED_UNIT(*)
SI_UNIT($,.STERADIAN.)
SOLID_ANGLE_UNIT()
);
#1100=(
NAMED_UNIT(*)
PLANE_ANGLE_UNIT()
SI_UNIT($,.RADIAN.)
);
#1101=(
LENGTH_UNIT()
NAMED_UNIT(*)
SI_UNIT($,.METRE.)
);
#1102=PRODUCT_DEFINITION_SHAPE('','',#1103);
#1103=PRODUCT_DEFINITION('','',#1105,#1104);
#1104=PRODUCT_DEFINITION_CONTEXT('',#1111,'design');
#1105=PRODUCT_DEFINITION_FORMATION_WITH_SPECIFIED_SOURCE('','',#1107,
 .NOT_KNOWN.);
#1106=PRODUCT_RELATED_PRODUCT_CATEGORY('','',(#1107));
#1107=PRODUCT('Lid','Lid','Lid',(#1109));
#1108=PRODUCT_CATEGORY('','');
#1109=PRODUCT_CONTEXT('',#1111,'mechanical');
#1110=APPLICATION_PROTOCOL_DEFINITION('international standard',
'ap242_managed_model_based_3d_engineering',2020,#1111);
#1111=APPLICATION_CONTEXT('managed model based 3d engineering');
ENDSEC;
END-ISO-10303-21;
