ISO-10303-21;
HEADER;
/* Generated by software containing ST-Developer
 * from STEP Tools, Inc. (www.steptools.com) 
 */
/* OPTION: using custom renumber hook */

FILE_DESCRIPTION(
/* description */ ('STEP AP242 Edition 2',
'CAx-IF Rec.Pracs.---Representation and Presentation of Product Manufa
cturing Information (PMI)---4.0---2014-10-13',
'CAx-IF Rec.Pracs.---3D Tessellated Geometry---0.4---2014-09-14','2;1',
'CAx-IF Rec.Pracs.---User Defined Attributes---1.5---2016-08-15'),
/* implementation_level */ '2;1');

FILE_NAME(
/* name */ 'Case - ESPCase',
/* time_stamp */ '2026-07-03T07:47:40Z',
/* author */ (''),
/* organization */ (''),
/* preprocessor_version */ 'ST-DEVELOPER v20',
/* originating_system */ 'ONSHAPE BY PTC INC, 1.217',
/* authorisation */ '  ');

FILE_SCHEMA (('AP242_MANAGED_MODEL_BASED_3D_ENGINEERING_MIM_LF { 1 0 10303 442 3 1 4 }'));
ENDSEC;

DATA;
#10=SHAPE_REPRESENTATION_RELATIONSHIP('','',#1171,#11);
#11=ADVANCED_BREP_SHAPE_REPRESENTATION('',(#1169),#1887);
#12=CYLINDRICAL_SURFACE('',#1183,0.003);
#13=CYLINDRICAL_SURFACE('',#1185,0.003);
#14=CYLINDRICAL_SURFACE('',#1187,0.003);
#15=CYLINDRICAL_SURFACE('',#1189,0.003);
#16=CYLINDRICAL_SURFACE('',#1192,0.002);
#17=CYLINDRICAL_SURFACE('',#1195,0.002);
#18=CYLINDRICAL_SURFACE('',#1198,0.002);
#19=CYLINDRICAL_SURFACE('',#1201,0.002);
#20=CYLINDRICAL_SURFACE('',#1220,0.0015);
#21=CYLINDRICAL_SURFACE('',#1221,0.0015);
#22=CIRCLE('',#1176,0.003);
#23=CIRCLE('',#1177,0.003);
#24=CIRCLE('',#1178,0.003);
#25=CIRCLE('',#1179,0.003);
#26=CIRCLE('',#1181,0.0015);
#27=CIRCLE('',#1182,0.0015);
#28=CIRCLE('',#1184,0.003);
#29=CIRCLE('',#1186,0.003);
#30=CIRCLE('',#1188,0.003);
#31=CIRCLE('',#1190,0.003);
#32=CIRCLE('',#1193,0.002);
#33=CIRCLE('',#1194,0.002);
#34=CIRCLE('',#1196,0.002);
#35=CIRCLE('',#1197,0.002);
#36=CIRCLE('',#1199,0.002);
#37=CIRCLE('',#1200,0.002);
#38=CIRCLE('',#1202,0.002);
#39=CIRCLE('',#1203,0.002);
#40=CIRCLE('',#1205,0.0015);
#41=CIRCLE('',#1206,0.0015);
#42=ORIENTED_EDGE('',*,*,#370,.T.);
#43=ORIENTED_EDGE('',*,*,#371,.T.);
#44=ORIENTED_EDGE('',*,*,#372,.F.);
#45=ORIENTED_EDGE('',*,*,#373,.F.);
#46=ORIENTED_EDGE('',*,*,#374,.F.);
#47=ORIENTED_EDGE('',*,*,#375,.T.);
#48=ORIENTED_EDGE('',*,*,#376,.T.);
#49=ORIENTED_EDGE('',*,*,#377,.F.);
#50=ORIENTED_EDGE('',*,*,#378,.F.);
#51=ORIENTED_EDGE('',*,*,#379,.F.);
#52=ORIENTED_EDGE('',*,*,#380,.F.);
#53=ORIENTED_EDGE('',*,*,#381,.F.);
#54=ORIENTED_EDGE('',*,*,#382,.F.);
#55=ORIENTED_EDGE('',*,*,#383,.T.);
#56=ORIENTED_EDGE('',*,*,#384,.T.);
#57=ORIENTED_EDGE('',*,*,#385,.F.);
#58=ORIENTED_EDGE('',*,*,#386,.T.);
#59=ORIENTED_EDGE('',*,*,#387,.F.);
#60=ORIENTED_EDGE('',*,*,#388,.T.);
#61=ORIENTED_EDGE('',*,*,#389,.T.);
#62=ORIENTED_EDGE('',*,*,#390,.F.);
#63=ORIENTED_EDGE('',*,*,#391,.F.);
#64=ORIENTED_EDGE('',*,*,#392,.T.);
#65=ORIENTED_EDGE('',*,*,#393,.F.);
#66=ORIENTED_EDGE('',*,*,#394,.T.);
#67=ORIENTED_EDGE('',*,*,#395,.T.);
#68=ORIENTED_EDGE('',*,*,#396,.T.);
#69=ORIENTED_EDGE('',*,*,#397,.T.);
#70=ORIENTED_EDGE('',*,*,#398,.T.);
#71=ORIENTED_EDGE('',*,*,#399,.F.);
#72=ORIENTED_EDGE('',*,*,#400,.F.);
#73=ORIENTED_EDGE('',*,*,#401,.F.);
#74=ORIENTED_EDGE('',*,*,#402,.T.);
#75=ORIENTED_EDGE('',*,*,#403,.T.);
#76=ORIENTED_EDGE('',*,*,#404,.F.);
#77=ORIENTED_EDGE('',*,*,#405,.T.);
#78=ORIENTED_EDGE('',*,*,#406,.F.);
#79=ORIENTED_EDGE('',*,*,#407,.T.);
#80=ORIENTED_EDGE('',*,*,#408,.T.);
#81=ORIENTED_EDGE('',*,*,#409,.T.);
#82=ORIENTED_EDGE('',*,*,#410,.T.);
#83=ORIENTED_EDGE('',*,*,#411,.F.);
#84=ORIENTED_EDGE('',*,*,#412,.F.);
#85=ORIENTED_EDGE('',*,*,#413,.T.);
#86=ORIENTED_EDGE('',*,*,#414,.T.);
#87=ORIENTED_EDGE('',*,*,#415,.F.);
#88=ORIENTED_EDGE('',*,*,#416,.F.);
#89=ORIENTED_EDGE('',*,*,#398,.F.);
#90=ORIENTED_EDGE('',*,*,#417,.T.);
#91=ORIENTED_EDGE('',*,*,#418,.T.);
#92=ORIENTED_EDGE('',*,*,#419,.F.);
#93=ORIENTED_EDGE('',*,*,#413,.F.);
#94=ORIENTED_EDGE('',*,*,#420,.T.);
#95=ORIENTED_EDGE('',*,*,#421,.F.);
#96=ORIENTED_EDGE('',*,*,#422,.T.);
#97=ORIENTED_EDGE('',*,*,#423,.F.);
#98=ORIENTED_EDGE('',*,*,#424,.T.);
#99=ORIENTED_EDGE('',*,*,#425,.F.);
#100=ORIENTED_EDGE('',*,*,#426,.T.);
#101=ORIENTED_EDGE('',*,*,#427,.F.);
#102=ORIENTED_EDGE('',*,*,#428,.F.);
#103=ORIENTED_EDGE('',*,*,#429,.T.);
#104=ORIENTED_EDGE('',*,*,#430,.F.);
#105=ORIENTED_EDGE('',*,*,#403,.F.);
#106=ORIENTED_EDGE('',*,*,#431,.F.);
#107=ORIENTED_EDGE('',*,*,#432,.T.);
#108=ORIENTED_EDGE('',*,*,#433,.F.);
#109=ORIENTED_EDGE('',*,*,#405,.F.);
#110=ORIENTED_EDGE('',*,*,#434,.F.);
#111=ORIENTED_EDGE('',*,*,#435,.T.);
#112=ORIENTED_EDGE('',*,*,#436,.F.);
#113=ORIENTED_EDGE('',*,*,#407,.F.);
#114=ORIENTED_EDGE('',*,*,#437,.F.);
#115=ORIENTED_EDGE('',*,*,#438,.T.);
#116=ORIENTED_EDGE('',*,*,#439,.F.);
#117=ORIENTED_EDGE('',*,*,#409,.F.);
#118=ORIENTED_EDGE('',*,*,#440,.F.);
#119=ORIENTED_EDGE('',*,*,#441,.F.);
#120=ORIENTED_EDGE('',*,*,#442,.F.);
#121=ORIENTED_EDGE('',*,*,#443,.F.);
#122=ORIENTED_EDGE('',*,*,#444,.F.);
#123=ORIENTED_EDGE('',*,*,#391,.T.);
#124=ORIENTED_EDGE('',*,*,#445,.T.);
#125=ORIENTED_EDGE('',*,*,#387,.T.);
#126=ORIENTED_EDGE('',*,*,#446,.T.);
#127=ORIENTED_EDGE('',*,*,#442,.T.);
#128=ORIENTED_EDGE('',*,*,#447,.F.);
#129=ORIENTED_EDGE('',*,*,#440,.T.);
#130=ORIENTED_EDGE('',*,*,#448,.T.);
#131=ORIENTED_EDGE('',*,*,#378,.T.);
#132=ORIENTED_EDGE('',*,*,#449,.T.);
#133=ORIENTED_EDGE('',*,*,#374,.T.);
#134=ORIENTED_EDGE('',*,*,#450,.F.);
#135=ORIENTED_EDGE('',*,*,#372,.T.);
#136=ORIENTED_EDGE('',*,*,#451,.T.);
#137=ORIENTED_EDGE('',*,*,#380,.T.);
#138=ORIENTED_EDGE('',*,*,#452,.T.);
#139=ORIENTED_EDGE('',*,*,#415,.T.);
#140=ORIENTED_EDGE('',*,*,#453,.F.);
#141=ORIENTED_EDGE('',*,*,#421,.T.);
#142=ORIENTED_EDGE('',*,*,#454,.T.);
#143=ORIENTED_EDGE('',*,*,#385,.T.);
#144=ORIENTED_EDGE('',*,*,#455,.T.);
#145=ORIENTED_EDGE('',*,*,#393,.T.);
#146=ORIENTED_EDGE('',*,*,#456,.F.);
#147=ORIENTED_EDGE('',*,*,#437,.T.);
#148=ORIENTED_EDGE('',*,*,#408,.F.);
#149=ORIENTED_EDGE('',*,*,#436,.T.);
#150=ORIENTED_EDGE('',*,*,#457,.F.);
#151=ORIENTED_EDGE('',*,*,#458,.T.);
#152=ORIENTED_EDGE('',*,*,#459,.T.);
#153=ORIENTED_EDGE('',*,*,#460,.T.);
#154=ORIENTED_EDGE('',*,*,#461,.T.);
#155=ORIENTED_EDGE('',*,*,#462,.T.);
#156=ORIENTED_EDGE('',*,*,#433,.T.);
#157=ORIENTED_EDGE('',*,*,#463,.T.);
#158=ORIENTED_EDGE('',*,*,#434,.T.);
#159=ORIENTED_EDGE('',*,*,#406,.T.);
#160=ORIENTED_EDGE('',*,*,#430,.T.);
#161=ORIENTED_EDGE('',*,*,#464,.T.);
#162=ORIENTED_EDGE('',*,*,#431,.T.);
#163=ORIENTED_EDGE('',*,*,#404,.T.);
#164=ORIENTED_EDGE('',*,*,#465,.F.);
#165=ORIENTED_EDGE('',*,*,#428,.T.);
#166=ORIENTED_EDGE('',*,*,#402,.F.);
#167=ORIENTED_EDGE('',*,*,#439,.T.);
#168=ORIENTED_EDGE('',*,*,#401,.T.);
#169=ORIENTED_EDGE('',*,*,#466,.T.);
#170=ORIENTED_EDGE('',*,*,#467,.T.);
#171=ORIENTED_EDGE('',*,*,#417,.F.);
#172=ORIENTED_EDGE('',*,*,#400,.T.);
#173=ORIENTED_EDGE('',*,*,#468,.T.);
#174=ORIENTED_EDGE('',*,*,#469,.T.);
#175=ORIENTED_EDGE('',*,*,#466,.F.);
#176=ORIENTED_EDGE('',*,*,#399,.T.);
#177=ORIENTED_EDGE('',*,*,#416,.T.);
#178=ORIENTED_EDGE('',*,*,#470,.T.);
#179=ORIENTED_EDGE('',*,*,#468,.F.);
#180=ORIENTED_EDGE('',*,*,#412,.T.);
#181=ORIENTED_EDGE('',*,*,#471,.T.);
#182=ORIENTED_EDGE('',*,*,#472,.T.);
#183=ORIENTED_EDGE('',*,*,#420,.F.);
#184=ORIENTED_EDGE('',*,*,#419,.T.);
#185=ORIENTED_EDGE('',*,*,#473,.F.);
#186=ORIENTED_EDGE('',*,*,#474,.F.);
#187=ORIENTED_EDGE('',*,*,#410,.F.);
#188=ORIENTED_EDGE('',*,*,#411,.T.);
#189=ORIENTED_EDGE('',*,*,#474,.T.);
#190=ORIENTED_EDGE('',*,*,#475,.T.);
#191=ORIENTED_EDGE('',*,*,#471,.F.);
#192=ORIENTED_EDGE('',*,*,#475,.F.);
#193=ORIENTED_EDGE('',*,*,#473,.T.);
#194=ORIENTED_EDGE('',*,*,#418,.F.);
#195=ORIENTED_EDGE('',*,*,#467,.F.);
#196=ORIENTED_EDGE('',*,*,#469,.F.);
#197=ORIENTED_EDGE('',*,*,#470,.F.);
#198=ORIENTED_EDGE('',*,*,#452,.F.);
#199=ORIENTED_EDGE('',*,*,#379,.T.);
#200=ORIENTED_EDGE('',*,*,#448,.F.);
#201=ORIENTED_EDGE('',*,*,#443,.T.);
#202=ORIENTED_EDGE('',*,*,#446,.F.);
#203=ORIENTED_EDGE('',*,*,#386,.F.);
#204=ORIENTED_EDGE('',*,*,#454,.F.);
#205=ORIENTED_EDGE('',*,*,#472,.F.);
#206=ORIENTED_EDGE('',*,*,#460,.F.);
#207=ORIENTED_EDGE('',*,*,#476,.T.);
#208=ORIENTED_EDGE('',*,*,#425,.T.);
#209=ORIENTED_EDGE('',*,*,#477,.T.);
#210=ORIENTED_EDGE('',*,*,#427,.T.);
#211=ORIENTED_EDGE('',*,*,#478,.T.);
#212=ORIENTED_EDGE('',*,*,#458,.F.);
#213=ORIENTED_EDGE('',*,*,#479,.T.);
#214=ORIENTED_EDGE('',*,*,#462,.F.);
#215=ORIENTED_EDGE('',*,*,#480,.T.);
#216=ORIENTED_EDGE('',*,*,#423,.T.);
#217=ORIENTED_EDGE('',*,*,#481,.F.);
#218=ORIENTED_EDGE('',*,*,#459,.F.);
#219=ORIENTED_EDGE('',*,*,#478,.F.);
#220=ORIENTED_EDGE('',*,*,#426,.F.);
#221=ORIENTED_EDGE('',*,*,#476,.F.);
#222=ORIENTED_EDGE('',*,*,#461,.F.);
#223=ORIENTED_EDGE('',*,*,#477,.F.);
#224=ORIENTED_EDGE('',*,*,#424,.F.);
#225=ORIENTED_EDGE('',*,*,#480,.F.);
#226=ORIENTED_EDGE('',*,*,#481,.T.);
#227=ORIENTED_EDGE('',*,*,#422,.F.);
#228=ORIENTED_EDGE('',*,*,#453,.T.);
#229=ORIENTED_EDGE('',*,*,#392,.F.);
#230=ORIENTED_EDGE('',*,*,#444,.T.);
#231=ORIENTED_EDGE('',*,*,#441,.T.);
#232=ORIENTED_EDGE('',*,*,#447,.T.);
#233=ORIENTED_EDGE('',*,*,#373,.T.);
#234=ORIENTED_EDGE('',*,*,#450,.T.);
#235=ORIENTED_EDGE('',*,*,#414,.F.);
#236=ORIENTED_EDGE('',*,*,#479,.F.);
#237=ORIENTED_EDGE('',*,*,#457,.T.);
#238=ORIENTED_EDGE('',*,*,#435,.F.);
#239=ORIENTED_EDGE('',*,*,#463,.F.);
#240=ORIENTED_EDGE('',*,*,#432,.F.);
#241=ORIENTED_EDGE('',*,*,#464,.F.);
#242=ORIENTED_EDGE('',*,*,#429,.F.);
#243=ORIENTED_EDGE('',*,*,#465,.T.);
#244=ORIENTED_EDGE('',*,*,#438,.F.);
#245=ORIENTED_EDGE('',*,*,#456,.T.);
#246=ORIENTED_EDGE('',*,*,#482,.T.);
#247=ORIENTED_EDGE('',*,*,#483,.T.);
#248=ORIENTED_EDGE('',*,*,#484,.F.);
#249=ORIENTED_EDGE('',*,*,#485,.T.);
#250=ORIENTED_EDGE('',*,*,#484,.T.);
#251=ORIENTED_EDGE('',*,*,#486,.T.);
#252=ORIENTED_EDGE('',*,*,#487,.T.);
#253=ORIENTED_EDGE('',*,*,#488,.T.);
#254=ORIENTED_EDGE('',*,*,#489,.F.);
#255=ORIENTED_EDGE('',*,*,#490,.F.);
#256=ORIENTED_EDGE('',*,*,#489,.T.);
#257=ORIENTED_EDGE('',*,*,#491,.T.);
#258=ORIENTED_EDGE('',*,*,#492,.F.);
#259=ORIENTED_EDGE('',*,*,#493,.F.);
#260=ORIENTED_EDGE('',*,*,#494,.T.);
#261=ORIENTED_EDGE('',*,*,#495,.T.);
#262=ORIENTED_EDGE('',*,*,#496,.T.);
#263=ORIENTED_EDGE('',*,*,#482,.F.);
#264=ORIENTED_EDGE('',*,*,#497,.T.);
#265=ORIENTED_EDGE('',*,*,#492,.T.);
#266=ORIENTED_EDGE('',*,*,#485,.F.);
#267=ORIENTED_EDGE('',*,*,#490,.T.);
#268=ORIENTED_EDGE('',*,*,#493,.T.);
#269=ORIENTED_EDGE('',*,*,#497,.F.);
#270=ORIENTED_EDGE('',*,*,#498,.F.);
#271=ORIENTED_EDGE('',*,*,#397,.F.);
#272=ORIENTED_EDGE('',*,*,#499,.F.);
#273=ORIENTED_EDGE('',*,*,#486,.F.);
#274=ORIENTED_EDGE('',*,*,#483,.F.);
#275=ORIENTED_EDGE('',*,*,#496,.F.);
#276=ORIENTED_EDGE('',*,*,#499,.T.);
#277=ORIENTED_EDGE('',*,*,#396,.F.);
#278=ORIENTED_EDGE('',*,*,#500,.F.);
#279=ORIENTED_EDGE('',*,*,#487,.F.);
#280=ORIENTED_EDGE('',*,*,#495,.F.);
#281=ORIENTED_EDGE('',*,*,#501,.F.);
#282=ORIENTED_EDGE('',*,*,#394,.F.);
#283=ORIENTED_EDGE('',*,*,#498,.T.);
#284=ORIENTED_EDGE('',*,*,#500,.T.);
#285=ORIENTED_EDGE('',*,*,#395,.F.);
#286=ORIENTED_EDGE('',*,*,#501,.T.);
#287=ORIENTED_EDGE('',*,*,#494,.F.);
#288=ORIENTED_EDGE('',*,*,#491,.F.);
#289=ORIENTED_EDGE('',*,*,#488,.F.);
#290=ORIENTED_EDGE('',*,*,#502,.T.);
#291=ORIENTED_EDGE('',*,*,#503,.T.);
#292=ORIENTED_EDGE('',*,*,#504,.F.);
#293=ORIENTED_EDGE('',*,*,#505,.F.);
#294=ORIENTED_EDGE('',*,*,#455,.F.);
#295=ORIENTED_EDGE('',*,*,#506,.F.);
#296=ORIENTED_EDGE('',*,*,#504,.T.);
#297=ORIENTED_EDGE('',*,*,#507,.F.);
#298=ORIENTED_EDGE('',*,*,#508,.T.);
#299=ORIENTED_EDGE('',*,*,#505,.T.);
#300=ORIENTED_EDGE('',*,*,#506,.T.);
#301=ORIENTED_EDGE('',*,*,#384,.F.);
#302=ORIENTED_EDGE('',*,*,#382,.T.);
#303=ORIENTED_EDGE('',*,*,#507,.T.);
#304=ORIENTED_EDGE('',*,*,#503,.F.);
#305=ORIENTED_EDGE('',*,*,#509,.T.);
#306=ORIENTED_EDGE('',*,*,#509,.F.);
#307=ORIENTED_EDGE('',*,*,#502,.F.);
#308=ORIENTED_EDGE('',*,*,#508,.F.);
#309=ORIENTED_EDGE('',*,*,#383,.F.);
#310=ORIENTED_EDGE('',*,*,#510,.T.);
#311=ORIENTED_EDGE('',*,*,#511,.F.);
#312=ORIENTED_EDGE('',*,*,#512,.F.);
#313=ORIENTED_EDGE('',*,*,#513,.F.);
#314=ORIENTED_EDGE('',*,*,#514,.F.);
#315=ORIENTED_EDGE('',*,*,#510,.F.);
#316=ORIENTED_EDGE('',*,*,#515,.F.);
#317=ORIENTED_EDGE('',*,*,#451,.F.);
#318=ORIENTED_EDGE('',*,*,#381,.T.);
#319=ORIENTED_EDGE('',*,*,#515,.T.);
#320=ORIENTED_EDGE('',*,*,#513,.T.);
#321=ORIENTED_EDGE('',*,*,#516,.T.);
#322=ORIENTED_EDGE('',*,*,#517,.T.);
#323=ORIENTED_EDGE('',*,*,#511,.T.);
#324=ORIENTED_EDGE('',*,*,#514,.T.);
#325=ORIENTED_EDGE('',*,*,#371,.F.);
#326=ORIENTED_EDGE('',*,*,#516,.F.);
#327=ORIENTED_EDGE('',*,*,#512,.T.);
#328=ORIENTED_EDGE('',*,*,#517,.F.);
#329=ORIENTED_EDGE('',*,*,#370,.F.);
#330=ORIENTED_EDGE('',*,*,#518,.T.);
#331=ORIENTED_EDGE('',*,*,#519,.F.);
#332=ORIENTED_EDGE('',*,*,#520,.F.);
#333=ORIENTED_EDGE('',*,*,#521,.F.);
#334=ORIENTED_EDGE('',*,*,#522,.F.);
#335=ORIENTED_EDGE('',*,*,#520,.T.);
#336=ORIENTED_EDGE('',*,*,#523,.F.);
#337=ORIENTED_EDGE('',*,*,#449,.F.);
#338=ORIENTED_EDGE('',*,*,#377,.T.);
#339=ORIENTED_EDGE('',*,*,#524,.T.);
#340=ORIENTED_EDGE('',*,*,#521,.T.);
#341=ORIENTED_EDGE('',*,*,#522,.T.);
#342=ORIENTED_EDGE('',*,*,#523,.T.);
#343=ORIENTED_EDGE('',*,*,#519,.T.);
#344=ORIENTED_EDGE('',*,*,#525,.T.);
#345=ORIENTED_EDGE('',*,*,#375,.F.);
#346=ORIENTED_EDGE('',*,*,#525,.F.);
#347=ORIENTED_EDGE('',*,*,#518,.F.);
#348=ORIENTED_EDGE('',*,*,#524,.F.);
#349=ORIENTED_EDGE('',*,*,#376,.F.);
#350=ORIENTED_EDGE('',*,*,#526,.F.);
#351=ORIENTED_EDGE('',*,*,#527,.T.);
#352=ORIENTED_EDGE('',*,*,#528,.F.);
#353=ORIENTED_EDGE('',*,*,#389,.F.);
#354=ORIENTED_EDGE('',*,*,#445,.F.);
#355=ORIENTED_EDGE('',*,*,#529,.F.);
#356=ORIENTED_EDGE('',*,*,#530,.F.);
#357=ORIENTED_EDGE('',*,*,#531,.F.);
#358=ORIENTED_EDGE('',*,*,#390,.T.);
#359=ORIENTED_EDGE('',*,*,#528,.T.);
#360=ORIENTED_EDGE('',*,*,#532,.F.);
#361=ORIENTED_EDGE('',*,*,#529,.T.);
#362=ORIENTED_EDGE('',*,*,#531,.T.);
#363=ORIENTED_EDGE('',*,*,#533,.T.);
#364=ORIENTED_EDGE('',*,*,#526,.T.);
#365=ORIENTED_EDGE('',*,*,#388,.F.);
#366=ORIENTED_EDGE('',*,*,#530,.T.);
#367=ORIENTED_EDGE('',*,*,#532,.T.);
#368=ORIENTED_EDGE('',*,*,#527,.F.);
#369=ORIENTED_EDGE('',*,*,#533,.F.);
#370=EDGE_CURVE('',#534,#535,#640,.T.);
#371=EDGE_CURVE('',#535,#536,#641,.F.);
#372=EDGE_CURVE('',#537,#536,#642,.T.);
#373=EDGE_CURVE('',#538,#537,#643,.T.);
#374=EDGE_CURVE('',#539,#538,#644,.F.);
#375=EDGE_CURVE('',#539,#540,#645,.F.);
#376=EDGE_CURVE('',#540,#541,#646,.T.);
#377=EDGE_CURVE('',#542,#541,#647,.F.);
#378=EDGE_CURVE('',#543,#542,#648,.F.);
#379=EDGE_CURVE('',#544,#543,#649,.T.);
#380=EDGE_CURVE('',#545,#544,#650,.T.);
#381=EDGE_CURVE('',#534,#545,#651,.F.);
#382=EDGE_CURVE('',#546,#547,#652,.T.);
#383=EDGE_CURVE('',#546,#548,#653,.T.);
#384=EDGE_CURVE('',#548,#549,#654,.F.);
#385=EDGE_CURVE('',#550,#549,#655,.F.);
#386=EDGE_CURVE('',#550,#551,#656,.T.);
#387=EDGE_CURVE('',#552,#551,#657,.T.);
#388=EDGE_CURVE('',#552,#553,#658,.F.);
#389=EDGE_CURVE('',#553,#554,#659,.T.);
#390=EDGE_CURVE('',#555,#554,#660,.T.);
#391=EDGE_CURVE('',#556,#555,#661,.T.);
#392=EDGE_CURVE('',#556,#557,#662,.T.);
#393=EDGE_CURVE('',#547,#557,#663,.F.);
#394=EDGE_CURVE('',#558,#559,#664,.T.);
#395=EDGE_CURVE('',#559,#560,#665,.T.);
#396=EDGE_CURVE('',#560,#561,#666,.T.);
#397=EDGE_CURVE('',#561,#558,#667,.T.);
#398=EDGE_CURVE('',#562,#563,#668,.T.);
#399=EDGE_CURVE('',#564,#563,#669,.T.);
#400=EDGE_CURVE('',#565,#564,#670,.T.);
#401=EDGE_CURVE('',#562,#565,#671,.T.);
#402=EDGE_CURVE('',#566,#567,#672,.T.);
#403=EDGE_CURVE('',#567,#568,#22,.F.);
#404=EDGE_CURVE('',#569,#568,#673,.T.);
#405=EDGE_CURVE('',#569,#570,#23,.F.);
#406=EDGE_CURVE('',#571,#570,#674,.T.);
#407=EDGE_CURVE('',#571,#572,#24,.F.);
#408=EDGE_CURVE('',#572,#573,#675,.T.);
#409=EDGE_CURVE('',#573,#566,#25,.F.);
#410=EDGE_CURVE('',#574,#575,#676,.T.);
#411=EDGE_CURVE('',#576,#575,#677,.T.);
#412=EDGE_CURVE('',#577,#576,#678,.T.);
#413=EDGE_CURVE('',#577,#574,#679,.T.);
#414=EDGE_CURVE('',#578,#579,#680,.T.);
#415=EDGE_CURVE('',#580,#579,#681,.F.);
#416=EDGE_CURVE('',#563,#580,#682,.F.);
#417=EDGE_CURVE('',#562,#581,#683,.T.);
#418=EDGE_CURVE('',#581,#582,#684,.T.);
#419=EDGE_CURVE('',#574,#582,#685,.T.);
#420=EDGE_CURVE('',#577,#583,#686,.T.);
#421=EDGE_CURVE('',#584,#583,#687,.T.);
#422=EDGE_CURVE('',#584,#585,#688,.T.);
#423=EDGE_CURVE('',#586,#585,#689,.T.);
#424=EDGE_CURVE('',#586,#587,#26,.T.);
#425=EDGE_CURVE('',#588,#587,#690,.T.);
#426=EDGE_CURVE('',#588,#589,#27,.T.);
#427=EDGE_CURVE('',#578,#589,#691,.T.);
#428=EDGE_CURVE('',#590,#567,#692,.F.);
#429=EDGE_CURVE('',#590,#591,#28,.F.);
#430=EDGE_CURVE('',#568,#591,#693,.F.);
#431=EDGE_CURVE('',#592,#569,#694,.T.);
#432=EDGE_CURVE('',#592,#593,#29,.F.);
#433=EDGE_CURVE('',#570,#593,#695,.T.);
#434=EDGE_CURVE('',#594,#571,#696,.F.);
#435=EDGE_CURVE('',#594,#595,#30,.F.);
#436=EDGE_CURVE('',#572,#595,#697,.F.);
#437=EDGE_CURVE('',#596,#573,#698,.T.);
#438=EDGE_CURVE('',#596,#597,#31,.F.);
#439=EDGE_CURVE('',#566,#597,#699,.T.);
#440=EDGE_CURVE('',#598,#599,#700,.T.);
#441=EDGE_CURVE('',#600,#598,#701,.T.);
#442=EDGE_CURVE('',#601,#600,#702,.F.);
#443=EDGE_CURVE('',#599,#601,#703,.T.);
#444=EDGE_CURVE('',#556,#600,#32,.F.);
#445=EDGE_CURVE('',#555,#552,#704,.T.);
#446=EDGE_CURVE('',#551,#601,#33,.F.);
#447=EDGE_CURVE('',#598,#538,#34,.F.);
#448=EDGE_CURVE('',#599,#543,#35,.F.);
#449=EDGE_CURVE('',#542,#539,#705,.F.);
#450=EDGE_CURVE('',#537,#579,#36,.F.);
#451=EDGE_CURVE('',#536,#545,#706,.T.);
#452=EDGE_CURVE('',#544,#580,#37,.F.);
#453=EDGE_CURVE('',#584,#557,#38,.F.);
#454=EDGE_CURVE('',#583,#550,#39,.F.);
#455=EDGE_CURVE('',#549,#547,#707,.F.);
#456=EDGE_CURVE('',#596,#602,#708,.T.);
#457=EDGE_CURVE('',#603,#595,#709,.T.);
#458=EDGE_CURVE('',#603,#604,#710,.T.);
#459=EDGE_CURVE('',#604,#605,#40,.F.);
#460=EDGE_CURVE('',#605,#606,#711,.T.);
#461=EDGE_CURVE('',#606,#607,#41,.F.);
#462=EDGE_CURVE('',#607,#602,#712,.T.);
#463=EDGE_CURVE('',#593,#594,#713,.T.);
#464=EDGE_CURVE('',#591,#592,#714,.T.);
#465=EDGE_CURVE('',#590,#597,#715,.T.);
#466=EDGE_CURVE('',#565,#608,#716,.T.);
#467=EDGE_CURVE('',#608,#581,#717,.T.);
#468=EDGE_CURVE('',#564,#609,#718,.T.);
#469=EDGE_CURVE('',#609,#608,#719,.T.);
#470=EDGE_CURVE('',#580,#609,#720,.T.);
#471=EDGE_CURVE('',#576,#610,#721,.T.);
#472=EDGE_CURVE('',#610,#583,#722,.T.);
#473=EDGE_CURVE('',#611,#582,#723,.T.);
#474=EDGE_CURVE('',#575,#611,#724,.T.);
#475=EDGE_CURVE('',#611,#610,#725,.T.);
#476=EDGE_CURVE('',#605,#588,#726,.T.);
#477=EDGE_CURVE('',#587,#606,#727,.F.);
#478=EDGE_CURVE('',#589,#604,#728,.F.);
#479=EDGE_CURVE('',#603,#578,#729,.T.);
#480=EDGE_CURVE('',#607,#586,#730,.T.);
#481=EDGE_CURVE('',#602,#585,#731,.T.);
#482=EDGE_CURVE('',#612,#613,#732,.T.);
#483=EDGE_CURVE('',#613,#614,#733,.T.);
#484=EDGE_CURVE('',#615,#614,#734,.T.);
#485=EDGE_CURVE('',#615,#612,#735,.T.);
#486=EDGE_CURVE('',#614,#616,#736,.T.);
#487=EDGE_CURVE('',#616,#617,#737,.T.);
#488=EDGE_CURVE('',#617,#618,#738,.F.);
#489=EDGE_CURVE('',#619,#618,#739,.T.);
#490=EDGE_CURVE('',#615,#619,#740,.T.);
#491=EDGE_CURVE('',#618,#620,#741,.T.);
#492=EDGE_CURVE('',#621,#620,#742,.T.);
#493=EDGE_CURVE('',#619,#621,#743,.T.);
#494=EDGE_CURVE('',#620,#622,#744,.F.);
#495=EDGE_CURVE('',#622,#623,#745,.T.);
#496=EDGE_CURVE('',#623,#613,#746,.T.);
#497=EDGE_CURVE('',#612,#621,#747,.T.);
#498=EDGE_CURVE('',#558,#623,#748,.T.);
#499=EDGE_CURVE('',#616,#561,#749,.T.);
#500=EDGE_CURVE('',#617,#560,#750,.F.);
#501=EDGE_CURVE('',#559,#622,#751,.T.);
#502=EDGE_CURVE('',#624,#625,#752,.T.);
#503=EDGE_CURVE('',#625,#626,#753,.T.);
#504=EDGE_CURVE('',#627,#626,#754,.T.);
#505=EDGE_CURVE('',#624,#627,#755,.T.);
#506=EDGE_CURVE('',#627,#549,#756,.F.);
#507=EDGE_CURVE('',#547,#626,#757,.T.);
#508=EDGE_CURVE('',#548,#624,#758,.F.);
#509=EDGE_CURVE('',#625,#546,#759,.T.);
#510=EDGE_CURVE('',#628,#629,#760,.T.);
#511=EDGE_CURVE('',#630,#629,#761,.T.);
#512=EDGE_CURVE('',#631,#630,#762,.T.);
#513=EDGE_CURVE('',#628,#631,#763,.T.);
#514=EDGE_CURVE('',#629,#536,#764,.F.);
#515=EDGE_CURVE('',#545,#628,#765,.F.);
#516=EDGE_CURVE('',#631,#534,#766,.F.);
#517=EDGE_CURVE('',#535,#630,#767,.F.);
#518=EDGE_CURVE('',#632,#633,#768,.T.);
#519=EDGE_CURVE('',#634,#633,#769,.T.);
#520=EDGE_CURVE('',#635,#634,#770,.T.);
#521=EDGE_CURVE('',#632,#635,#771,.T.);
#522=EDGE_CURVE('',#635,#542,#772,.F.);
#523=EDGE_CURVE('',#539,#634,#773,.F.);
#524=EDGE_CURVE('',#541,#632,#774,.F.);
#525=EDGE_CURVE('',#633,#540,#775,.F.);
#526=EDGE_CURVE('',#636,#553,#776,.F.);
#527=EDGE_CURVE('',#636,#637,#777,.T.);
#528=EDGE_CURVE('',#554,#637,#778,.T.);
#529=EDGE_CURVE('',#638,#555,#779,.T.);
#530=EDGE_CURVE('',#639,#638,#780,.T.);
#531=EDGE_CURVE('',#552,#639,#781,.F.);
#532=EDGE_CURVE('',#638,#637,#782,.T.);
#533=EDGE_CURVE('',#639,#636,#783,.T.);
#534=VERTEX_POINT('',#1559);
#535=VERTEX_POINT('',#1560);
#536=VERTEX_POINT('',#1562);
#537=VERTEX_POINT('',#1564);
#538=VERTEX_POINT('',#1566);
#539=VERTEX_POINT('',#1568);
#540=VERTEX_POINT('',#1570);
#541=VERTEX_POINT('',#1572);
#542=VERTEX_POINT('',#1574);
#543=VERTEX_POINT('',#1576);
#544=VERTEX_POINT('',#1578);
#545=VERTEX_POINT('',#1580);
#546=VERTEX_POINT('',#1584);
#547=VERTEX_POINT('',#1585);
#548=VERTEX_POINT('',#1587);
#549=VERTEX_POINT('',#1589);
#550=VERTEX_POINT('',#1591);
#551=VERTEX_POINT('',#1593);
#552=VERTEX_POINT('',#1595);
#553=VERTEX_POINT('',#1597);
#554=VERTEX_POINT('',#1599);
#555=VERTEX_POINT('',#1601);
#556=VERTEX_POINT('',#1603);
#557=VERTEX_POINT('',#1605);
#558=VERTEX_POINT('',#1609);
#559=VERTEX_POINT('',#1610);
#560=VERTEX_POINT('',#1612);
#561=VERTEX_POINT('',#1614);
#562=VERTEX_POINT('',#1617);
#563=VERTEX_POINT('',#1618);
#564=VERTEX_POINT('',#1620);
#565=VERTEX_POINT('',#1622);
#566=VERTEX_POINT('',#1625);
#567=VERTEX_POINT('',#1626);
#568=VERTEX_POINT('',#1628);
#569=VERTEX_POINT('',#1630);
#570=VERTEX_POINT('',#1632);
#571=VERTEX_POINT('',#1634);
#572=VERTEX_POINT('',#1636);
#573=VERTEX_POINT('',#1638);
#574=VERTEX_POINT('',#1641);
#575=VERTEX_POINT('',#1642);
#576=VERTEX_POINT('',#1644);
#577=VERTEX_POINT('',#1646);
#578=VERTEX_POINT('',#1650);
#579=VERTEX_POINT('',#1651);
#580=VERTEX_POINT('',#1653);
#581=VERTEX_POINT('',#1656);
#582=VERTEX_POINT('',#1658);
#583=VERTEX_POINT('',#1661);
#584=VERTEX_POINT('',#1663);
#585=VERTEX_POINT('',#1665);
#586=VERTEX_POINT('',#1667);
#587=VERTEX_POINT('',#1669);
#588=VERTEX_POINT('',#1671);
#589=VERTEX_POINT('',#1673);
#590=VERTEX_POINT('',#1677);
#591=VERTEX_POINT('',#1679);
#592=VERTEX_POINT('',#1683);
#593=VERTEX_POINT('',#1685);
#594=VERTEX_POINT('',#1689);
#595=VERTEX_POINT('',#1691);
#596=VERTEX_POINT('',#1695);
#597=VERTEX_POINT('',#1697);
#598=VERTEX_POINT('',#1701);
#599=VERTEX_POINT('',#1702);
#600=VERTEX_POINT('',#1704);
#601=VERTEX_POINT('',#1706);
#602=VERTEX_POINT('',#1726);
#603=VERTEX_POINT('',#1728);
#604=VERTEX_POINT('',#1730);
#605=VERTEX_POINT('',#1732);
#606=VERTEX_POINT('',#1734);
#607=VERTEX_POINT('',#1736);
#608=VERTEX_POINT('',#1746);
#609=VERTEX_POINT('',#1750);
#610=VERTEX_POINT('',#1756);
#611=VERTEX_POINT('',#1760);
#612=VERTEX_POINT('',#1779);
#613=VERTEX_POINT('',#1780);
#614=VERTEX_POINT('',#1782);
#615=VERTEX_POINT('',#1784);
#616=VERTEX_POINT('',#1788);
#617=VERTEX_POINT('',#1790);
#618=VERTEX_POINT('',#1792);
#619=VERTEX_POINT('',#1794);
#620=VERTEX_POINT('',#1798);
#621=VERTEX_POINT('',#1800);
#622=VERTEX_POINT('',#1804);
#623=VERTEX_POINT('',#1806);
#624=VERTEX_POINT('',#1820);
#625=VERTEX_POINT('',#1821);
#626=VERTEX_POINT('',#1823);
#627=VERTEX_POINT('',#1825);
#628=VERTEX_POINT('',#1837);
#629=VERTEX_POINT('',#1838);
#630=VERTEX_POINT('',#1840);
#631=VERTEX_POINT('',#1842);
#632=VERTEX_POINT('',#1854);
#633=VERTEX_POINT('',#1855);
#634=VERTEX_POINT('',#1857);
#635=VERTEX_POINT('',#1859);
#636=VERTEX_POINT('',#1871);
#637=VERTEX_POINT('',#1873);
#638=VERTEX_POINT('',#1877);
#639=VERTEX_POINT('',#1879);
#640=LINE('',#1558,#784);
#641=LINE('',#1561,#785);
#642=LINE('',#1563,#786);
#643=LINE('',#1565,#787);
#644=LINE('',#1567,#788);
#645=LINE('',#1569,#789);
#646=LINE('',#1571,#790);
#647=LINE('',#1573,#791);
#648=LINE('',#1575,#792);
#649=LINE('',#1577,#793);
#650=LINE('',#1579,#794);
#651=LINE('',#1581,#795);
#652=LINE('',#1583,#796);
#653=LINE('',#1586,#797);
#654=LINE('',#1588,#798);
#655=LINE('',#1590,#799);
#656=LINE('',#1592,#800);
#657=LINE('',#1594,#801);
#658=LINE('',#1596,#802);
#659=LINE('',#1598,#803);
#660=LINE('',#1600,#804);
#661=LINE('',#1602,#805);
#662=LINE('',#1604,#806);
#663=LINE('',#1606,#807);
#664=LINE('',#1608,#808);
#665=LINE('',#1611,#809);
#666=LINE('',#1613,#810);
#667=LINE('',#1615,#811);
#668=LINE('',#1616,#812);
#669=LINE('',#1619,#813);
#670=LINE('',#1621,#814);
#671=LINE('',#1623,#815);
#672=LINE('',#1624,#816);
#673=LINE('',#1629,#817);
#674=LINE('',#1633,#818);
#675=LINE('',#1637,#819);
#676=LINE('',#1640,#820);
#677=LINE('',#1643,#821);
#678=LINE('',#1645,#822);
#679=LINE('',#1647,#823);
#680=LINE('',#1649,#824);
#681=LINE('',#1652,#825);
#682=LINE('',#1654,#826);
#683=LINE('',#1655,#827);
#684=LINE('',#1657,#828);
#685=LINE('',#1659,#829);
#686=LINE('',#1660,#830);
#687=LINE('',#1662,#831);
#688=LINE('',#1664,#832);
#689=LINE('',#1666,#833);
#690=LINE('',#1670,#834);
#691=LINE('',#1674,#835);
#692=LINE('',#1676,#836);
#693=LINE('',#1680,#837);
#694=LINE('',#1682,#838);
#695=LINE('',#1686,#839);
#696=LINE('',#1688,#840);
#697=LINE('',#1692,#841);
#698=LINE('',#1694,#842);
#699=LINE('',#1698,#843);
#700=LINE('',#1700,#844);
#701=LINE('',#1703,#845);
#702=LINE('',#1705,#846);
#703=LINE('',#1707,#847);
#704=LINE('',#1710,#848);
#705=LINE('',#1715,#849);
#706=LINE('',#1718,#850);
#707=LINE('',#1723,#851);
#708=LINE('',#1725,#852);
#709=LINE('',#1727,#853);
#710=LINE('',#1729,#854);
#711=LINE('',#1733,#855);
#712=LINE('',#1737,#856);
#713=LINE('',#1739,#857);
#714=LINE('',#1741,#858);
#715=LINE('',#1743,#859);
#716=LINE('',#1745,#860);
#717=LINE('',#1747,#861);
#718=LINE('',#1749,#862);
#719=LINE('',#1751,#863);
#720=LINE('',#1753,#864);
#721=LINE('',#1755,#865);
#722=LINE('',#1757,#866);
#723=LINE('',#1759,#867);
#724=LINE('',#1761,#868);
#725=LINE('',#1763,#869);
#726=LINE('',#1766,#870);
#727=LINE('',#1767,#871);
#728=LINE('',#1769,#872);
#729=LINE('',#1770,#873);
#730=LINE('',#1772,#874);
#731=LINE('',#1773,#875);
#732=LINE('',#1778,#876);
#733=LINE('',#1781,#877);
#734=LINE('',#1783,#878);
#735=LINE('',#1785,#879);
#736=LINE('',#1787,#880);
#737=LINE('',#1789,#881);
#738=LINE('',#1791,#882);
#739=LINE('',#1793,#883);
#740=LINE('',#1795,#884);
#741=LINE('',#1797,#885);
#742=LINE('',#1799,#886);
#743=LINE('',#1801,#887);
#744=LINE('',#1803,#888);
#745=LINE('',#1805,#889);
#746=LINE('',#1807,#890);
#747=LINE('',#1808,#891);
#748=LINE('',#1811,#892);
#749=LINE('',#1812,#893);
#750=LINE('',#1814,#894);
#751=LINE('',#1816,#895);
#752=LINE('',#1819,#896);
#753=LINE('',#1822,#897);
#754=LINE('',#1824,#898);
#755=LINE('',#1826,#899);
#756=LINE('',#1828,#900);
#757=LINE('',#1829,#901);
#758=LINE('',#1831,#902);
#759=LINE('',#1833,#903);
#760=LINE('',#1836,#904);
#761=LINE('',#1839,#905);
#762=LINE('',#1841,#906);
#763=LINE('',#1843,#907);
#764=LINE('',#1845,#908);
#765=LINE('',#1846,#909);
#766=LINE('',#1848,#910);
#767=LINE('',#1850,#911);
#768=LINE('',#1853,#912);
#769=LINE('',#1856,#913);
#770=LINE('',#1858,#914);
#771=LINE('',#1860,#915);
#772=LINE('',#1862,#916);
#773=LINE('',#1863,#917);
#774=LINE('',#1865,#918);
#775=LINE('',#1867,#919);
#776=LINE('',#1870,#920);
#777=LINE('',#1872,#921);
#778=LINE('',#1874,#922);
#779=LINE('',#1876,#923);
#780=LINE('',#1878,#924);
#781=LINE('',#1880,#925);
#782=LINE('',#1882,#926);
#783=LINE('',#1884,#927);
#784=VECTOR('',#1256,1.);
#785=VECTOR('',#1257,1.);
#786=VECTOR('',#1258,1.);
#787=VECTOR('',#1259,1.);
#788=VECTOR('',#1260,1.);
#789=VECTOR('',#1261,1.);
#790=VECTOR('',#1262,1.);
#791=VECTOR('',#1263,1.);
#792=VECTOR('',#1264,1.);
#793=VECTOR('',#1265,1.);
#794=VECTOR('',#1266,1.);
#795=VECTOR('',#1267,1.);
#796=VECTOR('',#1270,1.);
#797=VECTOR('',#1271,1.);
#798=VECTOR('',#1272,1.);
#799=VECTOR('',#1273,1.);
#800=VECTOR('',#1274,1.);
#801=VECTOR('',#1275,1.);
#802=VECTOR('',#1276,1.);
#803=VECTOR('',#1277,1.);
#804=VECTOR('',#1278,1.);
#805=VECTOR('',#1279,1.);
#806=VECTOR('',#1280,1.);
#807=VECTOR('',#1281,1.);
#808=VECTOR('',#1284,1.);
#809=VECTOR('',#1285,1.);
#810=VECTOR('',#1286,1.);
#811=VECTOR('',#1287,1.);
#812=VECTOR('',#1288,1.);
#813=VECTOR('',#1289,1.);
#814=VECTOR('',#1290,1.);
#815=VECTOR('',#1291,1.);
#816=VECTOR('',#1292,1.);
#817=VECTOR('',#1295,1.);
#818=VECTOR('',#1298,1.);
#819=VECTOR('',#1301,1.);
#820=VECTOR('',#1304,1.);
#821=VECTOR('',#1305,1.);
#822=VECTOR('',#1306,1.);
#823=VECTOR('',#1307,1.);
#824=VECTOR('',#1310,1.);
#825=VECTOR('',#1311,1.);
#826=VECTOR('',#1312,1.);
#827=VECTOR('',#1313,1.);
#828=VECTOR('',#1314,1.);
#829=VECTOR('',#1315,1.);
#830=VECTOR('',#1316,1.);
#831=VECTOR('',#1317,1.);
#832=VECTOR('',#1318,1.);
#833=VECTOR('',#1319,1.);
#834=VECTOR('',#1322,1.);
#835=VECTOR('',#1325,1.);
#836=VECTOR('',#1328,1.);
#837=VECTOR('',#1331,1.);
#838=VECTOR('',#1334,1.);
#839=VECTOR('',#1337,1.);
#840=VECTOR('',#1340,1.);
#841=VECTOR('',#1343,1.);
#842=VECTOR('',#1346,1.);
#843=VECTOR('',#1349,1.);
#844=VECTOR('',#1352,1.);
#845=VECTOR('',#1353,1.);
#846=VECTOR('',#1354,1.);
#847=VECTOR('',#1355,1.);
#848=VECTOR('',#1360,1.);
#849=VECTOR('',#1369,1.);
#850=VECTOR('',#1374,1.);
#851=VECTOR('',#1383,1.);
#852=VECTOR('',#1386,1.);
#853=VECTOR('',#1387,1.);
#854=VECTOR('',#1388,1.);
#855=VECTOR('',#1391,1.);
#856=VECTOR('',#1394,1.);
#857=VECTOR('',#1397,1.);
#858=VECTOR('',#1400,1.);
#859=VECTOR('',#1403,1.);
#860=VECTOR('',#1406,1.);
#861=VECTOR('',#1407,1.);
#862=VECTOR('',#1410,1.);
#863=VECTOR('',#1411,1.);
#864=VECTOR('',#1414,1.);
#865=VECTOR('',#1417,1.);
#866=VECTOR('',#1418,1.);
#867=VECTOR('',#1421,1.);
#868=VECTOR('',#1422,1.);
#869=VECTOR('',#1425,1.);
#870=VECTOR('',#1430,1.);
#871=VECTOR('',#1431,1.);
#872=VECTOR('',#1434,1.);
#873=VECTOR('',#1435,1.);
#874=VECTOR('',#1438,1.);
#875=VECTOR('',#1439,1.);
#876=VECTOR('',#1448,1.);
#877=VECTOR('',#1449,1.);
#878=VECTOR('',#1450,1.);
#879=VECTOR('',#1451,1.);
#880=VECTOR('',#1454,1.);
#881=VECTOR('',#1455,1.);
#882=VECTOR('',#1456,1.);
#883=VECTOR('',#1457,1.);
#884=VECTOR('',#1458,1.);
#885=VECTOR('',#1461,1.);
#886=VECTOR('',#1462,1.);
#887=VECTOR('',#1463,1.);
#888=VECTOR('',#1466,1.);
#889=VECTOR('',#1467,1.);
#890=VECTOR('',#1468,1.);
#891=VECTOR('',#1469,1.);
#892=VECTOR('',#1474,1.);
#893=VECTOR('',#1475,1.);
#894=VECTOR('',#1478,1.);
#895=VECTOR('',#1481,1.);
#896=VECTOR('',#1486,1.);
#897=VECTOR('',#1487,1.);
#898=VECTOR('',#1488,1.);
#899=VECTOR('',#1489,1.);
#900=VECTOR('',#1492,1.);
#901=VECTOR('',#1493,1.);
#902=VECTOR('',#1496,1.);
#903=VECTOR('',#1499,1.);
#904=VECTOR('',#1504,1.);
#905=VECTOR('',#1505,1.);
#906=VECTOR('',#1506,1.);
#907=VECTOR('',#1507,1.);
#908=VECTOR('',#1510,1.);
#909=VECTOR('',#1511,1.);
#910=VECTOR('',#1514,1.);
#911=VECTOR('',#1517,1.);
#912=VECTOR('',#1522,1.);
#913=VECTOR('',#1523,1.);
#914=VECTOR('',#1524,1.);
#915=VECTOR('',#1525,1.);
#916=VECTOR('',#1528,1.);
#917=VECTOR('',#1529,1.);
#918=VECTOR('',#1532,1.);
#919=VECTOR('',#1535,1.);
#920=VECTOR('',#1540,1.);
#921=VECTOR('',#1541,1.);
#922=VECTOR('',#1542,1.);
#923=VECTOR('',#1545,1.);
#924=VECTOR('',#1546,1.);
#925=VECTOR('',#1547,1.);
#926=VECTOR('',#1550,1.);
#927=VECTOR('',#1553,1.);
#928=EDGE_LOOP('',(#42,#43,#44,#45,#46,#47,#48,#49,#50,#51,#52,#53));
#929=EDGE_LOOP('',(#54,#55,#56,#57,#58,#59,#60,#61,#62,#63,#64,#65));
#930=EDGE_LOOP('',(#66,#67,#68,#69));
#931=EDGE_LOOP('',(#70,#71,#72,#73));
#932=EDGE_LOOP('',(#74,#75,#76,#77,#78,#79,#80,#81));
#933=EDGE_LOOP('',(#82,#83,#84,#85));
#934=EDGE_LOOP('',(#86,#87,#88,#89,#90,#91,#92,#93,#94,#95,#96,#97,#98,
#99,#100,#101));
#935=EDGE_LOOP('',(#102,#103,#104,#105));
#936=EDGE_LOOP('',(#106,#107,#108,#109));
#937=EDGE_LOOP('',(#110,#111,#112,#113));
#938=EDGE_LOOP('',(#114,#115,#116,#117));
#939=EDGE_LOOP('',(#118,#119,#120,#121));
#940=EDGE_LOOP('',(#122,#123,#124,#125,#126,#127));
#941=EDGE_LOOP('',(#128,#129,#130,#131,#132,#133));
#942=EDGE_LOOP('',(#134,#135,#136,#137,#138,#139));
#943=EDGE_LOOP('',(#140,#141,#142,#143,#144,#145));
#944=EDGE_LOOP('',(#146,#147,#148,#149,#150,#151,#152,#153,#154,#155));
#945=EDGE_LOOP('',(#156,#157,#158,#159));
#946=EDGE_LOOP('',(#160,#161,#162,#163));
#947=EDGE_LOOP('',(#164,#165,#166,#167));
#948=EDGE_LOOP('',(#168,#169,#170,#171));
#949=EDGE_LOOP('',(#172,#173,#174,#175));
#950=EDGE_LOOP('',(#176,#177,#178,#179));
#951=EDGE_LOOP('',(#180,#181,#182,#183));
#952=EDGE_LOOP('',(#184,#185,#186,#187));
#953=EDGE_LOOP('',(#188,#189,#190,#191));
#954=EDGE_LOOP('',(#192,#193,#194,#195,#196,#197,#198,#199,#200,#201,#202,
#203,#204,#205));
#955=EDGE_LOOP('',(#206,#207,#208,#209));
#956=EDGE_LOOP('',(#210,#211,#212,#213));
#957=EDGE_LOOP('',(#214,#215,#216,#217));
#958=EDGE_LOOP('',(#218,#219,#220,#221));
#959=EDGE_LOOP('',(#222,#223,#224,#225));
#960=EDGE_LOOP('',(#226,#227,#228,#229,#230,#231,#232,#233,#234,#235,#236,
#237,#238,#239,#240,#241,#242,#243,#244,#245));
#961=EDGE_LOOP('',(#246,#247,#248,#249));
#962=EDGE_LOOP('',(#250,#251,#252,#253,#254,#255));
#963=EDGE_LOOP('',(#256,#257,#258,#259));
#964=EDGE_LOOP('',(#260,#261,#262,#263,#264,#265));
#965=EDGE_LOOP('',(#266,#267,#268,#269));
#966=EDGE_LOOP('',(#270,#271,#272,#273,#274,#275));
#967=EDGE_LOOP('',(#276,#277,#278,#279));
#968=EDGE_LOOP('',(#280,#281,#282,#283));
#969=EDGE_LOOP('',(#284,#285,#286,#287,#288,#289));
#970=EDGE_LOOP('',(#290,#291,#292,#293));
#971=EDGE_LOOP('',(#294,#295,#296,#297));
#972=EDGE_LOOP('',(#298,#299,#300,#301));
#973=EDGE_LOOP('',(#302,#303,#304,#305));
#974=EDGE_LOOP('',(#306,#307,#308,#309));
#975=EDGE_LOOP('',(#310,#311,#312,#313));
#976=EDGE_LOOP('',(#314,#315,#316,#317));
#977=EDGE_LOOP('',(#318,#319,#320,#321));
#978=EDGE_LOOP('',(#322,#323,#324,#325));
#979=EDGE_LOOP('',(#326,#327,#328,#329));
#980=EDGE_LOOP('',(#330,#331,#332,#333));
#981=EDGE_LOOP('',(#334,#335,#336,#337));
#982=EDGE_LOOP('',(#338,#339,#340,#341));
#983=EDGE_LOOP('',(#342,#343,#344,#345));
#984=EDGE_LOOP('',(#346,#347,#348,#349));
#985=EDGE_LOOP('',(#350,#351,#352,#353));
#986=EDGE_LOOP('',(#354,#355,#356,#357));
#987=EDGE_LOOP('',(#358,#359,#360,#361));
#988=EDGE_LOOP('',(#362,#363,#364,#365));
#989=EDGE_LOOP('',(#366,#367,#368,#369));
#990=FACE_BOUND('',#928,.T.);
#991=FACE_BOUND('',#929,.T.);
#992=FACE_BOUND('',#930,.T.);
#993=FACE_BOUND('',#931,.T.);
#994=FACE_BOUND('',#932,.T.);
#995=FACE_BOUND('',#933,.T.);
#996=FACE_BOUND('',#934,.T.);
#997=FACE_BOUND('',#935,.T.);
#998=FACE_BOUND('',#936,.T.);
#999=FACE_BOUND('',#937,.T.);
#1000=FACE_BOUND('',#938,.T.);
#1001=FACE_BOUND('',#939,.T.);
#1002=FACE_BOUND('',#940,.T.);
#1003=FACE_BOUND('',#941,.T.);
#1004=FACE_BOUND('',#942,.T.);
#1005=FACE_BOUND('',#943,.T.);
#1006=FACE_BOUND('',#944,.T.);
#1007=FACE_BOUND('',#945,.T.);
#1008=FACE_BOUND('',#946,.T.);
#1009=FACE_BOUND('',#947,.T.);
#1010=FACE_BOUND('',#948,.T.);
#1011=FACE_BOUND('',#949,.T.);
#1012=FACE_BOUND('',#950,.T.);
#1013=FACE_BOUND('',#951,.T.);
#1014=FACE_BOUND('',#952,.T.);
#1015=FACE_BOUND('',#953,.T.);
#1016=FACE_BOUND('',#954,.T.);
#1017=FACE_BOUND('',#955,.T.);
#1018=FACE_BOUND('',#956,.T.);
#1019=FACE_BOUND('',#957,.T.);
#1020=FACE_BOUND('',#958,.T.);
#1021=FACE_BOUND('',#959,.T.);
#1022=FACE_BOUND('',#960,.T.);
#1023=FACE_BOUND('',#961,.T.);
#1024=FACE_BOUND('',#962,.T.);
#1025=FACE_BOUND('',#963,.T.);
#1026=FACE_BOUND('',#964,.T.);
#1027=FACE_BOUND('',#965,.T.);
#1028=FACE_BOUND('',#966,.T.);
#1029=FACE_BOUND('',#967,.T.);
#1030=FACE_BOUND('',#968,.T.);
#1031=FACE_BOUND('',#969,.T.);
#1032=FACE_BOUND('',#970,.T.);
#1033=FACE_BOUND('',#971,.T.);
#1034=FACE_BOUND('',#972,.T.);
#1035=FACE_BOUND('',#973,.T.);
#1036=FACE_BOUND('',#974,.T.);
#1037=FACE_BOUND('',#975,.T.);
#1038=FACE_BOUND('',#976,.T.);
#1039=FACE_BOUND('',#977,.T.);
#1040=FACE_BOUND('',#978,.T.);
#1041=FACE_BOUND('',#979,.T.);
#1042=FACE_BOUND('',#980,.T.);
#1043=FACE_BOUND('',#981,.T.);
#1044=FACE_BOUND('',#982,.T.);
#1045=FACE_BOUND('',#983,.T.);
#1046=FACE_BOUND('',#984,.T.);
#1047=FACE_BOUND('',#985,.T.);
#1048=FACE_BOUND('',#986,.T.);
#1049=FACE_BOUND('',#987,.T.);
#1050=FACE_BOUND('',#988,.T.);
#1051=FACE_BOUND('',#989,.T.);
#1052=PLANE('',#1173);
#1053=PLANE('',#1174);
#1054=PLANE('',#1175);
#1055=PLANE('',#1180);
#1056=PLANE('',#1191);
#1057=PLANE('',#1204);
#1058=PLANE('',#1207);
#1059=PLANE('',#1208);
#1060=PLANE('',#1209);
#1061=PLANE('',#1210);
#1062=PLANE('',#1211);
#1063=PLANE('',#1212);
#1064=PLANE('',#1213);
#1065=PLANE('',#1214);
#1066=PLANE('',#1215);
#1067=PLANE('',#1216);
#1068=PLANE('',#1217);
#1069=PLANE('',#1218);
#1070=PLANE('',#1219);
#1071=PLANE('',#1222);
#1072=PLANE('',#1223);
#1073=PLANE('',#1224);
#1074=PLANE('',#1225);
#1075=PLANE('',#1226);
#1076=PLANE('',#1227);
#1077=PLANE('',#1228);
#1078=PLANE('',#1229);
#1079=PLANE('',#1230);
#1080=PLANE('',#1231);
#1081=PLANE('',#1232);
#1082=PLANE('',#1233);
#1083=PLANE('',#1234);
#1084=PLANE('',#1235);
#1085=PLANE('',#1236);
#1086=PLANE('',#1237);
#1087=PLANE('',#1238);
#1088=PLANE('',#1239);
#1089=PLANE('',#1240);
#1090=PLANE('',#1241);
#1091=PLANE('',#1242);
#1092=PLANE('',#1243);
#1093=PLANE('',#1244);
#1094=PLANE('',#1245);
#1095=PLANE('',#1246);
#1096=PLANE('',#1247);
#1097=PLANE('',#1248);
#1098=PLANE('',#1249);
#1099=PLANE('',#1250);
#1100=PLANE('',#1251);
#1101=ADVANCED_FACE('',(#990),#1052,.T.);
#1102=ADVANCED_FACE('',(#991),#1053,.F.);
#1103=ADVANCED_FACE('',(#992,#993,#994,#995),#1054,.F.);
#1104=ADVANCED_FACE('',(#996),#1055,.F.);
#1105=ADVANCED_FACE('',(#997),#12,.T.);
#1106=ADVANCED_FACE('',(#998),#13,.T.);
#1107=ADVANCED_FACE('',(#999),#14,.T.);
#1108=ADVANCED_FACE('',(#1000),#15,.T.);
#1109=ADVANCED_FACE('',(#1001),#1056,.T.);
#1110=ADVANCED_FACE('',(#1002),#16,.F.);
#1111=ADVANCED_FACE('',(#1003),#17,.F.);
#1112=ADVANCED_FACE('',(#1004),#18,.F.);
#1113=ADVANCED_FACE('',(#1005),#19,.F.);
#1114=ADVANCED_FACE('',(#1006),#1057,.T.);
#1115=ADVANCED_FACE('',(#1007),#1058,.F.);
#1116=ADVANCED_FACE('',(#1008),#1059,.F.);
#1117=ADVANCED_FACE('',(#1009),#1060,.T.);
#1118=ADVANCED_FACE('',(#1010),#1061,.F.);
#1119=ADVANCED_FACE('',(#1011),#1062,.F.);
#1120=ADVANCED_FACE('',(#1012),#1063,.F.);
#1121=ADVANCED_FACE('',(#1013),#1064,.F.);
#1122=ADVANCED_FACE('',(#1014),#1065,.T.);
#1123=ADVANCED_FACE('',(#1015),#1066,.F.);
#1124=ADVANCED_FACE('',(#1016),#1067,.T.);
#1125=ADVANCED_FACE('',(#1017),#1068,.F.);
#1126=ADVANCED_FACE('',(#1018),#1069,.F.);
#1127=ADVANCED_FACE('',(#1019),#1070,.F.);
#1128=ADVANCED_FACE('',(#1020),#20,.F.);
#1129=ADVANCED_FACE('',(#1021),#21,.F.);
#1130=ADVANCED_FACE('',(#1022),#1071,.T.);
#1131=ADVANCED_FACE('',(#1023),#1072,.T.);
#1132=ADVANCED_FACE('',(#1024),#1073,.F.);
#1133=ADVANCED_FACE('',(#1025),#1074,.F.);
#1134=ADVANCED_FACE('',(#1026),#1075,.T.);
#1135=ADVANCED_FACE('',(#1027),#1076,.T.);
#1136=ADVANCED_FACE('',(#1028),#1077,.T.);
#1137=ADVANCED_FACE('',(#1029),#1078,.F.);
#1138=ADVANCED_FACE('',(#1030),#1079,.T.);
#1139=ADVANCED_FACE('',(#1031),#1080,.F.);
#1140=ADVANCED_FACE('',(#1032),#1081,.F.);
#1141=ADVANCED_FACE('',(#1033),#1082,.T.);
#1142=ADVANCED_FACE('',(#1034),#1083,.T.);
#1143=ADVANCED_FACE('',(#1035),#1084,.T.);
#1144=ADVANCED_FACE('',(#1036),#1085,.F.);
#1145=ADVANCED_FACE('',(#1037),#1086,.F.);
#1146=ADVANCED_FACE('',(#1038),#1087,.F.);
#1147=ADVANCED_FACE('',(#1039),#1088,.T.);
#1148=ADVANCED_FACE('',(#1040),#1089,.F.);
#1149=ADVANCED_FACE('',(#1041),#1090,.T.);
#1150=ADVANCED_FACE('',(#1042),#1091,.F.);
#1151=ADVANCED_FACE('',(#1043),#1092,.F.);
#1152=ADVANCED_FACE('',(#1044),#1093,.T.);
#1153=ADVANCED_FACE('',(#1045),#1094,.F.);
#1154=ADVANCED_FACE('',(#1046),#1095,.T.);
#1155=ADVANCED_FACE('',(#1047),#1096,.F.);
#1156=ADVANCED_FACE('',(#1048),#1097,.T.);
#1157=ADVANCED_FACE('',(#1049),#1098,.T.);
#1158=ADVANCED_FACE('',(#1050),#1099,.T.);
#1159=ADVANCED_FACE('',(#1051),#1100,.F.);
#1160=CLOSED_SHELL('',(#1101,#1102,#1103,#1104,#1105,#1106,#1107,#1108,
#1109,#1110,#1111,#1112,#1113,#1114,#1115,#1116,#1117,#1118,#1119,#1120,
#1121,#1122,#1123,#1124,#1125,#1126,#1127,#1128,#1129,#1130,#1131,#1132,
#1133,#1134,#1135,#1136,#1137,#1138,#1139,#1140,#1141,#1142,#1143,#1144,
#1145,#1146,#1147,#1148,#1149,#1150,#1151,#1152,#1153,#1154,#1155,#1156,
#1157,#1158,#1159));
#1161=STYLED_ITEM('',(#1162),#1169);
#1162=PRESENTATION_STYLE_ASSIGNMENT((#1163));
#1163=SURFACE_STYLE_USAGE(.BOTH.,#1164);
#1164=SURFACE_SIDE_STYLE('',(#1165));
#1165=SURFACE_STYLE_FILL_AREA(#1166);
#1166=FILL_AREA_STYLE('',(#1167));
#1167=FILL_AREA_STYLE_COLOUR('',#1168);
#1168=COLOUR_RGB('',0.917647058823529,0.917647058823529,0.917647058823529);
#1169=MANIFOLD_SOLID_BREP('ESPCase',#1160);
#1170=SHAPE_DEFINITION_REPRESENTATION(#1892,#1171);
#1171=SHAPE_REPRESENTATION('ESPCase',(#1172),#1887);
#1172=AXIS2_PLACEMENT_3D('',#1556,#1252,#1253);
#1173=AXIS2_PLACEMENT_3D('',#1557,#1254,#1255);
#1174=AXIS2_PLACEMENT_3D('',#1582,#1268,#1269);
#1175=AXIS2_PLACEMENT_3D('',#1607,#1282,#1283);
#1176=AXIS2_PLACEMENT_3D('',#1627,#1293,#1294);
#1177=AXIS2_PLACEMENT_3D('',#1631,#1296,#1297);
#1178=AXIS2_PLACEMENT_3D('',#1635,#1299,#1300);
#1179=AXIS2_PLACEMENT_3D('',#1639,#1302,#1303);
#1180=AXIS2_PLACEMENT_3D('',#1648,#1308,#1309);
#1181=AXIS2_PLACEMENT_3D('',#1668,#1320,#1321);
#1182=AXIS2_PLACEMENT_3D('',#1672,#1323,#1324);
#1183=AXIS2_PLACEMENT_3D('',#1675,#1326,#1327);
#1184=AXIS2_PLACEMENT_3D('',#1678,#1329,#1330);
#1185=AXIS2_PLACEMENT_3D('',#1681,#1332,#1333);
#1186=AXIS2_PLACEMENT_3D('',#1684,#1335,#1336);
#1187=AXIS2_PLACEMENT_3D('',#1687,#1338,#1339);
#1188=AXIS2_PLACEMENT_3D('',#1690,#1341,#1342);
#1189=AXIS2_PLACEMENT_3D('',#1693,#1344,#1345);
#1190=AXIS2_PLACEMENT_3D('',#1696,#1347,#1348);
#1191=AXIS2_PLACEMENT_3D('',#1699,#1350,#1351);
#1192=AXIS2_PLACEMENT_3D('',#1708,#1356,#1357);
#1193=AXIS2_PLACEMENT_3D('',#1709,#1358,#1359);
#1194=AXIS2_PLACEMENT_3D('',#1711,#1361,#1362);
#1195=AXIS2_PLACEMENT_3D('',#1712,#1363,#1364);
#1196=AXIS2_PLACEMENT_3D('',#1713,#1365,#1366);
#1197=AXIS2_PLACEMENT_3D('',#1714,#1367,#1368);
#1198=AXIS2_PLACEMENT_3D('',#1716,#1370,#1371);
#1199=AXIS2_PLACEMENT_3D('',#1717,#1372,#1373);
#1200=AXIS2_PLACEMENT_3D('',#1719,#1375,#1376);
#1201=AXIS2_PLACEMENT_3D('',#1720,#1377,#1378);
#1202=AXIS2_PLACEMENT_3D('',#1721,#1379,#1380);
#1203=AXIS2_PLACEMENT_3D('',#1722,#1381,#1382);
#1204=AXIS2_PLACEMENT_3D('',#1724,#1384,#1385);
#1205=AXIS2_PLACEMENT_3D('',#1731,#1389,#1390);
#1206=AXIS2_PLACEMENT_3D('',#1735,#1392,#1393);
#1207=AXIS2_PLACEMENT_3D('',#1738,#1395,#1396);
#1208=AXIS2_PLACEMENT_3D('',#1740,#1398,#1399);
#1209=AXIS2_PLACEMENT_3D('',#1742,#1401,#1402);
#1210=AXIS2_PLACEMENT_3D('',#1744,#1404,#1405);
#1211=AXIS2_PLACEMENT_3D('',#1748,#1408,#1409);
#1212=AXIS2_PLACEMENT_3D('',#1752,#1412,#1413);
#1213=AXIS2_PLACEMENT_3D('',#1754,#1415,#1416);
#1214=AXIS2_PLACEMENT_3D('',#1758,#1419,#1420);
#1215=AXIS2_PLACEMENT_3D('',#1762,#1423,#1424);
#1216=AXIS2_PLACEMENT_3D('',#1764,#1426,#1427);
#1217=AXIS2_PLACEMENT_3D('',#1765,#1428,#1429);
#1218=AXIS2_PLACEMENT_3D('',#1768,#1432,#1433);
#1219=AXIS2_PLACEMENT_3D('',#1771,#1436,#1437);
#1220=AXIS2_PLACEMENT_3D('',#1774,#1440,#1441);
#1221=AXIS2_PLACEMENT_3D('',#1775,#1442,#1443);
#1222=AXIS2_PLACEMENT_3D('',#1776,#1444,#1445);
#1223=AXIS2_PLACEMENT_3D('',#1777,#1446,#1447);
#1224=AXIS2_PLACEMENT_3D('',#1786,#1452,#1453);
#1225=AXIS2_PLACEMENT_3D('',#1796,#1459,#1460);
#1226=AXIS2_PLACEMENT_3D('',#1802,#1464,#1465);
#1227=AXIS2_PLACEMENT_3D('',#1809,#1470,#1471);
#1228=AXIS2_PLACEMENT_3D('',#1810,#1472,#1473);
#1229=AXIS2_PLACEMENT_3D('',#1813,#1476,#1477);
#1230=AXIS2_PLACEMENT_3D('',#1815,#1479,#1480);
#1231=AXIS2_PLACEMENT_3D('',#1817,#1482,#1483);
#1232=AXIS2_PLACEMENT_3D('',#1818,#1484,#1485);
#1233=AXIS2_PLACEMENT_3D('',#1827,#1490,#1491);
#1234=AXIS2_PLACEMENT_3D('',#1830,#1494,#1495);
#1235=AXIS2_PLACEMENT_3D('',#1832,#1497,#1498);
#1236=AXIS2_PLACEMENT_3D('',#1834,#1500,#1501);
#1237=AXIS2_PLACEMENT_3D('',#1835,#1502,#1503);
#1238=AXIS2_PLACEMENT_3D('',#1844,#1508,#1509);
#1239=AXIS2_PLACEMENT_3D('',#1847,#1512,#1513);
#1240=AXIS2_PLACEMENT_3D('',#1849,#1515,#1516);
#1241=AXIS2_PLACEMENT_3D('',#1851,#1518,#1519);
#1242=AXIS2_PLACEMENT_3D('',#1852,#1520,#1521);
#1243=AXIS2_PLACEMENT_3D('',#1861,#1526,#1527);
#1244=AXIS2_PLACEMENT_3D('',#1864,#1530,#1531);
#1245=AXIS2_PLACEMENT_3D('',#1866,#1533,#1534);
#1246=AXIS2_PLACEMENT_3D('',#1868,#1536,#1537);
#1247=AXIS2_PLACEMENT_3D('',#1869,#1538,#1539);
#1248=AXIS2_PLACEMENT_3D('',#1875,#1543,#1544);
#1249=AXIS2_PLACEMENT_3D('',#1881,#1548,#1549);
#1250=AXIS2_PLACEMENT_3D('',#1883,#1551,#1552);
#1251=AXIS2_PLACEMENT_3D('',#1885,#1554,#1555);
#1252=DIRECTION('',(0.,0.,1.));
#1253=DIRECTION('',(1.,0.,0.));
#1254=DIRECTION('',(-1.,-1.77920356510441E-16,0.));
#1255=DIRECTION('',(1.77920356510441E-16,-1.,0.));
#1256=DIRECTION('',(0.,0.,1.));
#1257=DIRECTION('',(-1.77920356510441E-16,1.,-1.30583747897572E-17));
#1258=DIRECTION('',(0.,0.,-1.));
#1259=DIRECTION('',(1.77920356510441E-16,-1.,0.));
#1260=DIRECTION('',(0.,0.,-1.));
#1261=DIRECTION('',(-1.77920356510441E-16,1.,-1.30583747897572E-17));
#1262=DIRECTION('',(0.,0.,-1.));
#1263=DIRECTION('',(-1.77920356510441E-16,1.,-4.32558664910707E-16));
#1264=DIRECTION('',(0.,0.,-1.));
#1265=DIRECTION('',(-1.77920356510441E-16,1.,0.));
#1266=DIRECTION('',(0.,0.,-1.));
#1267=DIRECTION('',(-1.77920356510441E-16,1.,-4.32558664910707E-16));
#1268=DIRECTION('',(-1.,-2.37227142013923E-16,0.));
#1269=DIRECTION('',(2.37227142013923E-16,-1.,0.));
#1270=DIRECTION('',(2.37227142013923E-16,-1.,-1.7411166386343E-17));
#1271=DIRECTION('',(0.,0.,-1.));
#1272=DIRECTION('',(-2.37227142013923E-16,1.,-1.7411166386343E-17));
#1273=DIRECTION('',(0.,0.,-1.));
#1274=DIRECTION('',(-2.37227142013923E-16,1.,0.));
#1275=DIRECTION('',(0.,0.,-1.));
#1276=DIRECTION('',(-2.37227142013923E-16,1.,-1.7411166386343E-17));
#1277=DIRECTION('',(0.,0.,1.));
#1278=DIRECTION('',(2.37227142013923E-16,-1.,-1.74111663863429E-17));
#1279=DIRECTION('',(0.,0.,-1.));
#1280=DIRECTION('',(2.37227142013923E-16,-1.,0.));
#1281=DIRECTION('',(0.,0.,-1.));
#1282=DIRECTION('',(0.,0.,1.));
#1283=DIRECTION('',(1.,0.,0.));
#1284=DIRECTION('',(-1.,0.,0.));
#1285=DIRECTION('',(0.,-1.,0.));
#1286=DIRECTION('',(1.,0.,0.));
#1287=DIRECTION('',(0.,1.,0.));
#1288=DIRECTION('',(1.,0.,0.));
#1289=DIRECTION('',(0.,-1.,0.));
#1290=DIRECTION('',(1.,0.,0.));
#1291=DIRECTION('',(-5.66440318686304E-16,1.,0.));
#1292=DIRECTION('',(-2.37227142013923E-16,1.,0.));
#1293=DIRECTION('',(0.,0.,1.));
#1294=DIRECTION('',(1.,0.,0.));
#1295=DIRECTION('',(-1.,0.,0.));
#1296=DIRECTION('',(0.,0.,1.));
#1297=DIRECTION('',(1.,0.,0.));
#1298=DIRECTION('',(-1.77920356510441E-16,1.,0.));
#1299=DIRECTION('',(0.,0.,1.));
#1300=DIRECTION('',(1.,0.,0.));
#1301=DIRECTION('',(-1.,0.,0.));
#1302=DIRECTION('',(0.,0.,1.));
#1303=DIRECTION('',(1.,0.,0.));
#1304=DIRECTION('',(0.,1.,0.));
#1305=DIRECTION('',(1.,0.,0.));
#1306=DIRECTION('',(0.,1.,0.));
#1307=DIRECTION('',(1.,0.,0.));
#1308=DIRECTION('',(0.,-1.,0.));
#1309=DIRECTION('',(0.,0.,-1.));
#1310=DIRECTION('',(1.,0.,0.));
#1311=DIRECTION('',(0.,0.,-1.));
#1312=DIRECTION('',(0.,0.,-1.));
#1313=DIRECTION('',(0.,0.,1.));
#1314=DIRECTION('',(-1.,0.,0.));
#1315=DIRECTION('',(0.,0.,1.));
#1316=DIRECTION('',(0.,0.,1.));
#1317=DIRECTION('',(0.,0.,-1.));
#1318=DIRECTION('',(1.,0.,0.));
#1319=DIRECTION('',(0.,0.,1.));
#1320=DIRECTION('',(0.,-1.,0.));
#1321=DIRECTION('',(0.,0.,-1.));
#1322=DIRECTION('',(-1.,0.,0.));
#1323=DIRECTION('',(0.,-1.,0.));
#1324=DIRECTION('',(0.,0.,-1.));
#1325=DIRECTION('',(0.,0.,-1.));
#1326=DIRECTION('',(0.,0.,1.));
#1327=DIRECTION('',(1.,0.,0.));
#1328=DIRECTION('',(0.,0.,1.));
#1329=DIRECTION('',(0.,0.,1.));
#1330=DIRECTION('',(1.,0.,0.));
#1331=DIRECTION('',(0.,0.,-1.));
#1332=DIRECTION('',(0.,0.,-1.));
#1333=DIRECTION('',(-1.,0.,0.));
#1334=DIRECTION('',(0.,0.,-1.));
#1335=DIRECTION('',(0.,0.,1.));
#1336=DIRECTION('',(1.,0.,0.));
#1337=DIRECTION('',(0.,0.,1.));
#1338=DIRECTION('',(0.,0.,1.));
#1339=DIRECTION('',(1.,0.,0.));
#1340=DIRECTION('',(0.,0.,1.));
#1341=DIRECTION('',(0.,0.,1.));
#1342=DIRECTION('',(1.,0.,0.));
#1343=DIRECTION('',(0.,0.,-1.));
#1344=DIRECTION('',(0.,0.,-1.));
#1345=DIRECTION('',(-1.,0.,0.));
#1346=DIRECTION('',(0.,0.,-1.));
#1347=DIRECTION('',(0.,0.,1.));
#1348=DIRECTION('',(1.,0.,0.));
#1349=DIRECTION('',(0.,0.,1.));
#1350=DIRECTION('',(0.,-1.,0.));
#1351=DIRECTION('',(0.,0.,-1.));
#1352=DIRECTION('',(0.,0.,-1.));
#1353=DIRECTION('',(1.,0.,0.));
#1354=DIRECTION('',(0.,0.,-1.));
#1355=DIRECTION('',(-1.,0.,0.));
#1356=DIRECTION('',(0.,0.,1.));
#1357=DIRECTION('',(1.,0.,0.));
#1358=DIRECTION('',(0.,0.,1.));
#1359=DIRECTION('',(1.,0.,0.));
#1360=DIRECTION('',(0.,0.,-1.));
#1361=DIRECTION('',(0.,0.,1.));
#1362=DIRECTION('',(1.,0.,0.));
#1363=DIRECTION('',(0.,0.,-1.));
#1364=DIRECTION('',(-1.,0.,0.));
#1365=DIRECTION('',(0.,0.,1.));
#1366=DIRECTION('',(1.,0.,0.));
#1367=DIRECTION('',(0.,0.,1.));
#1368=DIRECTION('',(1.,0.,0.));
#1369=DIRECTION('',(0.,0.,-1.));
#1370=DIRECTION('',(0.,0.,1.));
#1371=DIRECTION('',(1.,0.,0.));
#1372=DIRECTION('',(0.,0.,1.));
#1373=DIRECTION('',(1.,0.,0.));
#1374=DIRECTION('',(0.,0.,-1.));
#1375=DIRECTION('',(0.,0.,1.));
#1376=DIRECTION('',(1.,0.,0.));
#1377=DIRECTION('',(0.,0.,-1.));
#1378=DIRECTION('',(-1.,0.,0.));
#1379=DIRECTION('',(0.,0.,1.));
#1380=DIRECTION('',(1.,0.,0.));
#1381=DIRECTION('',(0.,0.,1.));
#1382=DIRECTION('',(1.,0.,0.));
#1383=DIRECTION('',(0.,0.,-1.));
#1384=DIRECTION('',(0.,-1.,0.));
#1385=DIRECTION('',(0.,0.,-1.));
#1386=DIRECTION('',(1.,0.,0.));
#1387=DIRECTION('',(1.,0.,0.));
#1388=DIRECTION('',(0.,0.,-1.));
#1389=DIRECTION('',(0.,-1.,0.));
#1390=DIRECTION('',(0.,0.,-1.));
#1391=DIRECTION('',(-1.,0.,0.));
#1392=DIRECTION('',(0.,-1.,0.));
#1393=DIRECTION('',(0.,0.,-1.));
#1394=DIRECTION('',(0.,0.,1.));
#1395=DIRECTION('',(-1.,-1.77920356510441E-16,0.));
#1396=DIRECTION('',(1.77920356510441E-16,-1.,0.));
#1397=DIRECTION('',(1.77920356510441E-16,-1.,0.));
#1398=DIRECTION('',(0.,-1.,0.));
#1399=DIRECTION('',(0.,0.,-1.));
#1400=DIRECTION('',(1.,0.,0.));
#1401=DIRECTION('',(-1.,-2.37227142013923E-16,0.));
#1402=DIRECTION('',(2.37227142013923E-16,-1.,0.));
#1403=DIRECTION('',(2.37227142013923E-16,-1.,0.));
#1404=DIRECTION('',(-1.,-5.66440318686304E-16,0.));
#1405=DIRECTION('',(5.66440318686304E-16,-1.,0.));
#1406=DIRECTION('',(0.,0.,1.));
#1407=DIRECTION('',(5.66440318686304E-16,-1.,0.));
#1408=DIRECTION('',(0.,1.,0.));
#1409=DIRECTION('',(0.,0.,1.));
#1410=DIRECTION('',(0.,0.,1.));
#1411=DIRECTION('',(-1.,0.,0.));
#1412=DIRECTION('',(1.,0.,0.));
#1413=DIRECTION('',(0.,0.,-1.));
#1414=DIRECTION('',(0.,1.,0.));
#1415=DIRECTION('',(-1.,0.,0.));
#1416=DIRECTION('',(0.,0.,1.));
#1417=DIRECTION('',(0.,0.,1.));
#1418=DIRECTION('',(0.,-1.,0.));
#1419=DIRECTION('',(-1.,0.,0.));
#1420=DIRECTION('',(0.,0.,1.));
#1421=DIRECTION('',(0.,-1.,0.));
#1422=DIRECTION('',(0.,0.,1.));
#1423=DIRECTION('',(0.,1.,0.));
#1424=DIRECTION('',(0.,0.,1.));
#1425=DIRECTION('',(-1.,0.,0.));
#1426=DIRECTION('',(0.,0.,1.));
#1427=DIRECTION('',(1.,0.,0.));
#1428=DIRECTION('',(0.,0.,-1.));
#1429=DIRECTION('',(-1.,0.,0.));
#1430=DIRECTION('',(0.,1.,0.));
#1431=DIRECTION('',(0.,1.,0.));
#1432=DIRECTION('',(1.,0.,0.));
#1433=DIRECTION('',(0.,0.,-1.));
#1434=DIRECTION('',(0.,1.,0.));
#1435=DIRECTION('',(0.,1.,0.));
#1436=DIRECTION('',(-1.,0.,0.));
#1437=DIRECTION('',(0.,0.,1.));
#1438=DIRECTION('',(0.,1.,0.));
#1439=DIRECTION('',(0.,1.,0.));
#1440=DIRECTION('',(0.,-1.,0.));
#1441=DIRECTION('',(0.,0.,-1.));
#1442=DIRECTION('',(0.,-1.,0.));
#1443=DIRECTION('',(0.,0.,-1.));
#1444=DIRECTION('',(0.,0.,1.));
#1445=DIRECTION('',(1.,0.,0.));
#1446=DIRECTION('',(-1.,0.,0.));
#1447=DIRECTION('',(0.,0.,1.));
#1448=DIRECTION('',(0.,-0.342020143325668,-0.939692620785909));
#1449=DIRECTION('',(0.,-1.,0.));
#1450=DIRECTION('',(0.,-0.342020143325668,-0.939692620785909));
#1451=DIRECTION('',(0.,1.,0.));
#1452=DIRECTION('',(0.,-0.939692620785909,0.342020143325668));
#1453=DIRECTION('',(0.,-0.342020143325668,-0.939692620785909));
#1454=DIRECTION('',(0.684791078771736,-0.249243569363954,-0.684791078771736));
#1455=DIRECTION('',(-1.,0.,0.));
#1456=DIRECTION('',(-0.684791078771736,-0.249243569363954,-0.684791078771736));
#1457=DIRECTION('',(0.,-0.342020143325668,-0.939692620785909));
#1458=DIRECTION('',(-1.,0.,0.));
#1459=DIRECTION('',(-1.,0.,0.));
#1460=DIRECTION('',(0.,0.,1.));
#1461=DIRECTION('',(0.,1.,0.));
#1462=DIRECTION('',(0.,-0.342020143325668,-0.939692620785909));
#1463=DIRECTION('',(0.,1.,0.));
#1464=DIRECTION('',(0.,-0.939692620785909,0.342020143325668));
#1465=DIRECTION('',(0.,-0.342020143325668,-0.939692620785909));
#1466=DIRECTION('',(0.684791078771736,0.249243569363954,0.684791078771736));
#1467=DIRECTION('',(1.,0.,0.));
#1468=DIRECTION('',(-0.684791078771736,0.249243569363954,0.684791078771736));
#1469=DIRECTION('',(-1.,0.,0.));
#1470=DIRECTION('',(0.,0.,-1.));
#1471=DIRECTION('',(1.,0.,0.));
#1472=DIRECTION('',(-0.707106781186548,0.,-0.707106781186548));
#1473=DIRECTION('',(0.,-1.,0.));
#1474=DIRECTION('',(-0.633687274224642,-0.443712606279659,0.633687274224642));
#1475=DIRECTION('',(0.497542812164524,-0.710564775461629,-0.497542812164524));
#1476=DIRECTION('',(0.,-0.573576436351047,0.819152044288991));
#1477=DIRECTION('',(-1.,0.,0.));
#1478=DIRECTION('',(0.497542812164524,0.710564775461629,0.497542812164524));
#1479=DIRECTION('',(0.,-0.819152044288992,-0.573576436351047));
#1480=DIRECTION('',(1.,0.,0.));
#1481=DIRECTION('',(0.633687274224642,-0.443712606279659,0.633687274224642));
#1482=DIRECTION('',(-0.707106781186548,0.,0.707106781186548));
#1483=DIRECTION('',(0.,1.,0.));
#1484=DIRECTION('',(-1.,-2.54638308400266E-16,0.));
#1485=DIRECTION('',(2.54638308400266E-16,-1.,0.));
#1486=DIRECTION('',(0.,0.,1.));
#1487=DIRECTION('',(2.54638308400266E-16,-1.,0.));
#1488=DIRECTION('',(0.,0.,1.));
#1489=DIRECTION('',(2.54638308400266E-16,-1.,0.));
#1490=DIRECTION('',(0.,1.,0.));
#1491=DIRECTION('',(0.,0.,1.));
#1492=DIRECTION('',(-0.707106781186548,0.,0.707106781186548));
#1493=DIRECTION('',(-0.707106781186547,0.,-0.707106781186548));
#1494=DIRECTION('',(0.707106781186548,1.80056474619699E-16,0.707106781186548));
#1495=DIRECTION('',(-2.54638308400266E-16,1.,0.));
#1496=DIRECTION('',(0.707106781186548,0.,-0.707106781186548));
#1497=DIRECTION('',(0.707106781186548,1.80056474619699E-16,-0.707106781186547));
#1498=DIRECTION('',(2.54638308400266E-16,-1.,0.));
#1499=DIRECTION('',(0.707106781186547,0.,0.707106781186548));
#1500=DIRECTION('',(0.,1.,0.));
#1501=DIRECTION('',(0.,0.,1.));
#1502=DIRECTION('',(1.,-2.54638308400266E-16,0.));
#1503=DIRECTION('',(-2.54638308400266E-16,-1.,0.));
#1504=DIRECTION('',(0.,0.,1.));
#1505=DIRECTION('',(-2.54638308400266E-16,-1.,0.));
#1506=DIRECTION('',(0.,0.,1.));
#1507=DIRECTION('',(2.54638308400266E-16,1.,0.));
#1508=DIRECTION('',(8.67361737988403E-16,-1.,0.));
#1509=DIRECTION('',(1.,8.67361737988403E-16,0.));
#1510=DIRECTION('',(0.707106781186548,6.13317366673349E-16,-0.707106781186547));
#1511=DIRECTION('',(-0.707106781186548,-6.13317366673349E-16,-0.707106781186548));
#1512=DIRECTION('',(-0.707106781186548,1.80056474619699E-16,0.707106781186548));
#1513=DIRECTION('',(2.54638308400266E-16,1.,0.));
#1514=DIRECTION('',(0.707106781186548,0.,0.707106781186548));
#1515=DIRECTION('',(0.707106781186547,1.35042355964774E-16,0.707106781186548));
#1516=DIRECTION('',(-1.90978731300199E-16,1.,0.));
#1517=DIRECTION('',(-0.707106781186548,0.,0.707106781186547));
#1518=DIRECTION('',(0.,-1.,0.));
#1519=DIRECTION('',(0.,0.,-1.));
#1520=DIRECTION('',(1.,-2.54638308400266E-16,0.));
#1521=DIRECTION('',(-2.54638308400266E-16,-1.,0.));
#1522=DIRECTION('',(0.,0.,1.));
#1523=DIRECTION('',(-2.54638308400266E-16,-1.,0.));
#1524=DIRECTION('',(0.,0.,1.));
#1525=DIRECTION('',(2.54638308400266E-16,1.,0.));
#1526=DIRECTION('',(0.,1.,0.));
#1527=DIRECTION('',(0.,0.,1.));
#1528=DIRECTION('',(0.707106781186548,0.,0.707106781186548));
#1529=DIRECTION('',(-0.707106781186547,0.,0.707106781186548));
#1530=DIRECTION('',(-0.707106781186548,1.80056474619699E-16,0.707106781186548));
#1531=DIRECTION('',(2.54638308400266E-16,1.,0.));
#1532=DIRECTION('',(-0.707106781186548,0.,-0.707106781186548));
#1533=DIRECTION('',(0.707106781186548,1.35042355964774E-16,0.707106781186547));
#1534=DIRECTION('',(-1.90978731300199E-16,1.,0.));
#1535=DIRECTION('',(0.707106781186547,0.,-0.707106781186548));
#1536=DIRECTION('',(0.,1.,0.));
#1537=DIRECTION('',(0.,0.,1.));
#1538=DIRECTION('',(0.,-1.,0.));
#1539=DIRECTION('',(0.,0.,-1.));
#1540=DIRECTION('',(-0.707106781186548,0.,0.707106781186548));
#1541=DIRECTION('',(0.,0.,1.));
#1542=DIRECTION('',(-0.707106781186548,0.,-0.707106781186547));
#1543=DIRECTION('',(0.,-1.,0.));
#1544=DIRECTION('',(0.,0.,-1.));
#1545=DIRECTION('',(0.707106781186548,0.,0.707106781186547));
#1546=DIRECTION('',(0.,0.,1.));
#1547=DIRECTION('',(0.707106781186548,0.,-0.707106781186548));
#1548=DIRECTION('',(0.707106781186547,1.80056474619699E-16,-0.707106781186548));
#1549=DIRECTION('',(2.54638308400266E-16,-1.,0.));
#1550=DIRECTION('',(2.54638308400266E-16,-1.,0.));
#1551=DIRECTION('',(0.707106781186548,1.80056474619699E-16,0.707106781186548));
#1552=DIRECTION('',(-2.54638308400266E-16,1.,0.));
#1553=DIRECTION('',(2.54638308400266E-16,-1.,0.));
#1554=DIRECTION('',(-1.,-2.54638308400266E-16,0.));
#1555=DIRECTION('',(2.54638308400266E-16,-1.,0.));
#1556=CARTESIAN_POINT('',(0.,0.,0.));
#1557=CARTESIAN_POINT('',(-0.0085,0.02925,0.014));
#1558=CARTESIAN_POINT('',(-0.0085,0.007,0.014));
#1559=CARTESIAN_POINT('',(-0.0085,0.007,0.0091));
#1560=CARTESIAN_POINT('',(-0.0085,0.007,0.0107));
#1561=CARTESIAN_POINT('',(-0.0085,0.02925,0.0107));
#1562=CARTESIAN_POINT('',(-0.0085,0.002,0.0107));
#1563=CARTESIAN_POINT('',(-0.0085,0.002,0.));
#1564=CARTESIAN_POINT('',(-0.0085,0.002,0.0129));
#1565=CARTESIAN_POINT('',(-0.0085,0.02925,0.0129));
#1566=CARTESIAN_POINT('',(-0.0085,0.0565,0.0129));
#1567=CARTESIAN_POINT('',(-0.0085,0.0565,0.014));
#1568=CARTESIAN_POINT('',(-0.0085,0.0565,0.0107));
#1569=CARTESIAN_POINT('',(-0.0085,0.02925,0.0107));
#1570=CARTESIAN_POINT('',(-0.0085,0.0515,0.0107));
#1571=CARTESIAN_POINT('',(-0.0085,0.0515,0.014));
#1572=CARTESIAN_POINT('',(-0.0085,0.0515,0.0091));
#1573=CARTESIAN_POINT('',(-0.0085,0.02925,0.0091));
#1574=CARTESIAN_POINT('',(-0.0085,0.0565,0.0091));
#1575=CARTESIAN_POINT('',(-0.0085,0.0565,0.014));
#1576=CARTESIAN_POINT('',(-0.0085,0.0565,0.008));
#1577=CARTESIAN_POINT('',(-0.0085,0.02925,0.008));
#1578=CARTESIAN_POINT('',(-0.0085,0.002,0.008));
#1579=CARTESIAN_POINT('',(-0.0085,0.002,0.));
#1580=CARTESIAN_POINT('',(-0.0085,0.002,0.0091));
#1581=CARTESIAN_POINT('',(-0.0085,0.02925,0.0091));
#1582=CARTESIAN_POINT('',(-0.0415,0.02925,0.014));
#1583=CARTESIAN_POINT('',(-0.0415,0.02925,0.0107));
#1584=CARTESIAN_POINT('',(-0.0415,0.007,0.0107));
#1585=CARTESIAN_POINT('',(-0.0415,0.002,0.0107));
#1586=CARTESIAN_POINT('',(-0.0415,0.007,0.014));
#1587=CARTESIAN_POINT('',(-0.0415,0.007,0.0091));
#1588=CARTESIAN_POINT('',(-0.0415,0.02925,0.0091));
#1589=CARTESIAN_POINT('',(-0.0415,0.002,0.0091));
#1590=CARTESIAN_POINT('',(-0.0415,0.002,0.014));
#1591=CARTESIAN_POINT('',(-0.0415,0.002,0.008));
#1592=CARTESIAN_POINT('',(-0.0415,0.02925,0.008));
#1593=CARTESIAN_POINT('',(-0.0415,0.0565,0.008));
#1594=CARTESIAN_POINT('',(-0.0415,0.0565,0.));
#1595=CARTESIAN_POINT('',(-0.0415,0.0565,0.0091));
#1596=CARTESIAN_POINT('',(-0.0415,0.02925,0.0091));
#1597=CARTESIAN_POINT('',(-0.0415,0.0515,0.0091));
#1598=CARTESIAN_POINT('',(-0.0415,0.0515,0.014));
#1599=CARTESIAN_POINT('',(-0.0415,0.0515,0.0107));
#1600=CARTESIAN_POINT('',(-0.0415,0.02925,0.0107));
#1601=CARTESIAN_POINT('',(-0.0415,0.0565,0.0107));
#1602=CARTESIAN_POINT('',(-0.0415,0.0565,0.));
#1603=CARTESIAN_POINT('',(-0.0415,0.0565,0.0129));
#1604=CARTESIAN_POINT('',(-0.0415,0.02925,0.0129));
#1605=CARTESIAN_POINT('',(-0.0415,0.002,0.0129));
#1606=CARTESIAN_POINT('',(-0.0415,0.002,0.014));
#1607=CARTESIAN_POINT('',(-0.0195,0.02885,-0.001));
#1608=CARTESIAN_POINT('',(-0.03595,0.0563,-0.001));
#1609=CARTESIAN_POINT('',(-0.01305,0.0563,-0.001));
#1610=CARTESIAN_POINT('',(-0.03695,0.0563,-0.001));
#1611=CARTESIAN_POINT('',(-0.03695,0.02885,-0.001));
#1612=CARTESIAN_POINT('',(-0.03695,0.051,-0.001));
#1613=CARTESIAN_POINT('',(-0.0195,0.051,-0.001));
#1614=CARTESIAN_POINT('',(-0.01305,0.051,-0.001));
#1615=CARTESIAN_POINT('',(-0.01305,0.0553,-0.001));
#1616=CARTESIAN_POINT('',(-0.025,0.,-0.001));
#1617=CARTESIAN_POINT('',(-0.014,0.,-0.001));
#1618=CARTESIAN_POINT('',(-0.0105,0.,-0.001));
#1619=CARTESIAN_POINT('',(-0.0105,0.0245,-0.001));
#1620=CARTESIAN_POINT('',(-0.0105,0.049,-0.001));
#1621=CARTESIAN_POINT('',(-0.01225,0.049,-0.001));
#1622=CARTESIAN_POINT('',(-0.014,0.049,-0.001));
#1623=CARTESIAN_POINT('',(-0.014,0.0245,-0.001));
#1624=CARTESIAN_POINT('',(-0.0425,0.02925,-0.001));
#1625=CARTESIAN_POINT('',(-0.0425,0.002,-0.001));
#1626=CARTESIAN_POINT('',(-0.0425,0.0565,-0.001));
#1627=CARTESIAN_POINT('',(-0.0395,0.0565,-0.001));
#1628=CARTESIAN_POINT('',(-0.0395,0.0595,-0.001));
#1629=CARTESIAN_POINT('',(-0.025,0.0595,-0.001));
#1630=CARTESIAN_POINT('',(-0.0105,0.0595,-0.001));
#1631=CARTESIAN_POINT('',(-0.0105,0.0565,-0.001));
#1632=CARTESIAN_POINT('',(-0.0075,0.0565,-0.001));
#1633=CARTESIAN_POINT('',(-0.0075,0.02925,-0.001));
#1634=CARTESIAN_POINT('',(-0.0075,0.002,-0.001));
#1635=CARTESIAN_POINT('',(-0.0105,0.002,-0.001));
#1636=CARTESIAN_POINT('',(-0.0105,-0.001,-0.001));
#1637=CARTESIAN_POINT('',(-0.025,-0.001,-0.001));
#1638=CARTESIAN_POINT('',(-0.0395,-0.001,-0.001));
#1639=CARTESIAN_POINT('',(-0.0395,0.002,-0.001));
#1640=CARTESIAN_POINT('',(-0.036,0.0245,-0.001));
#1641=CARTESIAN_POINT('',(-0.036,0.,-0.001));
#1642=CARTESIAN_POINT('',(-0.036,0.049,-0.001));
#1643=CARTESIAN_POINT('',(-0.03775,0.049,-0.001));
#1644=CARTESIAN_POINT('',(-0.0395,0.049,-0.001));
#1645=CARTESIAN_POINT('',(-0.0395,0.0245,-0.001));
#1646=CARTESIAN_POINT('',(-0.0395,0.,-0.001));
#1647=CARTESIAN_POINT('',(-0.025,0.,-0.001));
#1648=CARTESIAN_POINT('',(-0.025,0.,0.014));
#1649=CARTESIAN_POINT('',(-0.025,0.,0.0129));
#1650=CARTESIAN_POINT('',(-0.02,0.,0.0129));
#1651=CARTESIAN_POINT('',(-0.0105,0.,0.0129));
#1652=CARTESIAN_POINT('',(-0.0105,0.,0.014));
#1653=CARTESIAN_POINT('',(-0.0105,0.,0.008));
#1654=CARTESIAN_POINT('',(-0.0105,0.,0.014));
#1655=CARTESIAN_POINT('',(-0.014,0.,-0.001002));
#1656=CARTESIAN_POINT('',(-0.014,0.,0.008));
#1657=CARTESIAN_POINT('',(-0.025,0.,0.008));
#1658=CARTESIAN_POINT('',(-0.036,0.,0.008));
#1659=CARTESIAN_POINT('',(-0.036,0.,-0.001002));
#1660=CARTESIAN_POINT('',(-0.0395,0.,-0.001002));
#1661=CARTESIAN_POINT('',(-0.0395,0.,0.008));
#1662=CARTESIAN_POINT('',(-0.0395,0.,0.014));
#1663=CARTESIAN_POINT('',(-0.0395,0.,0.0129));
#1664=CARTESIAN_POINT('',(-0.025,0.,0.0129));
#1665=CARTESIAN_POINT('',(-0.03,0.,0.0129));
#1666=CARTESIAN_POINT('',(-0.03,0.,0.01115));
#1667=CARTESIAN_POINT('',(-0.03,0.,0.0109));
#1668=CARTESIAN_POINT('',(-0.0285,0.,0.0109));
#1669=CARTESIAN_POINT('',(-0.0285,0.,0.0094));
#1670=CARTESIAN_POINT('',(-0.025,0.,0.0094));
#1671=CARTESIAN_POINT('',(-0.0215,0.,0.0094));
#1672=CARTESIAN_POINT('',(-0.0215,0.,0.0109));
#1673=CARTESIAN_POINT('',(-0.02,0.,0.0109));
#1674=CARTESIAN_POINT('',(-0.02,0.,0.01115));
#1675=CARTESIAN_POINT('',(-0.0395,0.0565,0.014));
#1676=CARTESIAN_POINT('',(-0.0425,0.0565,0.014));
#1677=CARTESIAN_POINT('',(-0.0425,0.0565,0.0129));
#1678=CARTESIAN_POINT('',(-0.0395,0.0565,0.0129));
#1679=CARTESIAN_POINT('',(-0.0395,0.0595,0.0129));
#1680=CARTESIAN_POINT('',(-0.0395,0.0595,0.014));
#1681=CARTESIAN_POINT('',(-0.0105,0.0565,0.014));
#1682=CARTESIAN_POINT('',(-0.0105,0.0595,0.014));
#1683=CARTESIAN_POINT('',(-0.0105,0.0595,0.0129));
#1684=CARTESIAN_POINT('',(-0.0105,0.0565,0.0129));
#1685=CARTESIAN_POINT('',(-0.0075,0.0565,0.0129));
#1686=CARTESIAN_POINT('',(-0.0075,0.0565,0.014));
#1687=CARTESIAN_POINT('',(-0.0105,0.002,0.014));
#1688=CARTESIAN_POINT('',(-0.0075,0.002,0.014));
#1689=CARTESIAN_POINT('',(-0.0075,0.002,0.0129));
#1690=CARTESIAN_POINT('',(-0.0105,0.002,0.0129));
#1691=CARTESIAN_POINT('',(-0.0105,-0.001,0.0129));
#1692=CARTESIAN_POINT('',(-0.0105,-0.001,0.014));
#1693=CARTESIAN_POINT('',(-0.0395,0.002,0.014));
#1694=CARTESIAN_POINT('',(-0.0395,-0.001,0.014));
#1695=CARTESIAN_POINT('',(-0.0395,-0.001,0.0129));
#1696=CARTESIAN_POINT('',(-0.0395,0.002,0.0129));
#1697=CARTESIAN_POINT('',(-0.0425,0.002,0.0129));
#1698=CARTESIAN_POINT('',(-0.0425,0.002,0.014));
#1699=CARTESIAN_POINT('',(-0.025,0.0585,0.014));
#1700=CARTESIAN_POINT('',(-0.0105,0.0585,0.014));
#1701=CARTESIAN_POINT('',(-0.0105,0.0585,0.0129));
#1702=CARTESIAN_POINT('',(-0.0105,0.0585,0.008));
#1703=CARTESIAN_POINT('',(-0.025,0.0585,0.0129));
#1704=CARTESIAN_POINT('',(-0.0395,0.0585,0.0129));
#1705=CARTESIAN_POINT('',(-0.0395,0.0585,0.014));
#1706=CARTESIAN_POINT('',(-0.0395,0.0585,0.008));
#1707=CARTESIAN_POINT('',(-0.025,0.0585,0.008));
#1708=CARTESIAN_POINT('',(-0.0395,0.0565,0.014));
#1709=CARTESIAN_POINT('',(-0.0395,0.0565,0.0129));
#1710=CARTESIAN_POINT('',(-0.0415,0.0565,0.));
#1711=CARTESIAN_POINT('',(-0.0395,0.0565,0.008));
#1712=CARTESIAN_POINT('',(-0.0105,0.0565,0.014));
#1713=CARTESIAN_POINT('',(-0.0105,0.0565,0.0129));
#1714=CARTESIAN_POINT('',(-0.0105,0.0565,0.008));
#1715=CARTESIAN_POINT('',(-0.0085,0.0565,0.014));
#1716=CARTESIAN_POINT('',(-0.0105,0.002,0.014));
#1717=CARTESIAN_POINT('',(-0.0105,0.002,0.0129));
#1718=CARTESIAN_POINT('',(-0.0085,0.002,0.));
#1719=CARTESIAN_POINT('',(-0.0105,0.002,0.008));
#1720=CARTESIAN_POINT('',(-0.0395,0.002,0.014));
#1721=CARTESIAN_POINT('',(-0.0395,0.002,0.0129));
#1722=CARTESIAN_POINT('',(-0.0395,0.002,0.008));
#1723=CARTESIAN_POINT('',(-0.0415,0.002,0.014));
#1724=CARTESIAN_POINT('',(-0.025,-0.001,0.014));
#1725=CARTESIAN_POINT('',(-0.025,-0.001,0.0129));
#1726=CARTESIAN_POINT('',(-0.03,-0.001,0.0129));
#1727=CARTESIAN_POINT('',(-0.025,-0.001,0.0129));
#1728=CARTESIAN_POINT('',(-0.02,-0.001,0.0129));
#1729=CARTESIAN_POINT('',(-0.02,-0.001,0.01115));
#1730=CARTESIAN_POINT('',(-0.02,-0.001,0.0109));
#1731=CARTESIAN_POINT('',(-0.0215,-0.001,0.0109));
#1732=CARTESIAN_POINT('',(-0.0215,-0.001,0.0094));
#1733=CARTESIAN_POINT('',(-0.025,-0.001,0.0094));
#1734=CARTESIAN_POINT('',(-0.0285,-0.001,0.0094));
#1735=CARTESIAN_POINT('',(-0.0285,-0.001,0.0109));
#1736=CARTESIAN_POINT('',(-0.03,-0.001,0.0109));
#1737=CARTESIAN_POINT('',(-0.03,-0.001,0.01115));
#1738=CARTESIAN_POINT('',(-0.0075,0.02925,0.014));
#1739=CARTESIAN_POINT('',(-0.0075,0.02925,0.0129));
#1740=CARTESIAN_POINT('',(-0.025,0.0595,0.014));
#1741=CARTESIAN_POINT('',(-0.025,0.0595,0.0129));
#1742=CARTESIAN_POINT('',(-0.0425,0.02925,0.014));
#1743=CARTESIAN_POINT('',(-0.0425,0.02925,0.0129));
#1744=CARTESIAN_POINT('',(-0.014,0.0245,-0.001002));
#1745=CARTESIAN_POINT('',(-0.014,0.049,-0.001002));
#1746=CARTESIAN_POINT('',(-0.014,0.049,0.008));
#1747=CARTESIAN_POINT('',(-0.014,0.0245,0.008));
#1748=CARTESIAN_POINT('',(-0.01225,0.049,-0.001002));
#1749=CARTESIAN_POINT('',(-0.0105,0.049,-0.001002));
#1750=CARTESIAN_POINT('',(-0.0105,0.049,0.008));
#1751=CARTESIAN_POINT('',(-0.01225,0.049,0.008));
#1752=CARTESIAN_POINT('',(-0.0105,0.0245,-0.001002));
#1753=CARTESIAN_POINT('',(-0.0105,0.0245,0.008));
#1754=CARTESIAN_POINT('',(-0.0395,0.0245,-0.001002));
#1755=CARTESIAN_POINT('',(-0.0395,0.049,-0.001002));
#1756=CARTESIAN_POINT('',(-0.0395,0.049,0.008));
#1757=CARTESIAN_POINT('',(-0.0395,0.0245,0.008));
#1758=CARTESIAN_POINT('',(-0.036,0.0245,-0.001002));
#1759=CARTESIAN_POINT('',(-0.036,0.0245,0.008));
#1760=CARTESIAN_POINT('',(-0.036,0.049,0.008));
#1761=CARTESIAN_POINT('',(-0.036,0.049,-0.001002));
#1762=CARTESIAN_POINT('',(-0.03775,0.049,-0.001002));
#1763=CARTESIAN_POINT('',(-0.03775,0.049,0.008));
#1764=CARTESIAN_POINT('',(-0.025,0.049,0.008));
#1765=CARTESIAN_POINT('',(-0.025,-0.001002,0.0094));
#1766=CARTESIAN_POINT('',(-0.0215,0.,0.0094));
#1767=CARTESIAN_POINT('',(-0.0285,-0.001,0.0094));
#1768=CARTESIAN_POINT('',(-0.02,-0.001002,0.01115));
#1769=CARTESIAN_POINT('',(-0.02,-0.001,0.0109));
#1770=CARTESIAN_POINT('',(-0.02,-0.001002,0.0129));
#1771=CARTESIAN_POINT('',(-0.03,-0.001002,0.01115));
#1772=CARTESIAN_POINT('',(-0.03,0.,0.0109));
#1773=CARTESIAN_POINT('',(-0.03,-0.001002,0.0129));
#1774=CARTESIAN_POINT('',(-0.0215,-0.001002,0.0109));
#1775=CARTESIAN_POINT('',(-0.0285,-0.001002,0.0109));
#1776=CARTESIAN_POINT('',(-0.025,-0.001002,0.0129));
#1777=CARTESIAN_POINT('',(-0.01405,0.055702120859954,0.00463815572471545));
#1778=CARTESIAN_POINT('',(-0.01405,0.057352120859954,0.00463815572471545));
#1779=CARTESIAN_POINT('',(-0.01405,0.057352120859954,0.00463815572471545));
#1780=CARTESIAN_POINT('',(-0.01405,0.0556639702342662,1.3010426069826E-18));
#1781=CARTESIAN_POINT('',(-0.01405,0.052,8.67361737988404E-19));
#1782=CARTESIAN_POINT('',(-0.01405,0.0523639702342662,1.3010426069826E-18));
#1783=CARTESIAN_POINT('',(-0.01405,0.054052120859954,0.00463815572471545));
#1784=CARTESIAN_POINT('',(-0.01405,0.054052120859954,0.00463815572471545));
#1785=CARTESIAN_POINT('',(-0.01405,0.055702120859954,0.00463815572471545));
#1786=CARTESIAN_POINT('',(-0.025,0.054052120859954,0.00463815572471545));
#1787=CARTESIAN_POINT('',(-0.0216480245410714,0.0551294250064403,0.00759802454107144));
#1788=CARTESIAN_POINT('',(-0.0139896926207859,0.0523420201433257,-6.03073792140886E-5));
#1789=CARTESIAN_POINT('',(-0.025,0.0523420201433257,-6.03073792140889E-5));
#1790=CARTESIAN_POINT('',(-0.0360103073792141,0.0523420201433257,-6.03073792140886E-5));
#1791=CARTESIAN_POINT('',(-0.0283519754589285,0.0551294250064403,0.00759802454107144));
#1792=CARTESIAN_POINT('',(-0.03595,0.0523639702342662,1.3010426069826E-18));
#1793=CARTESIAN_POINT('',(-0.03595,0.054052120859954,0.00463815572471545));
#1794=CARTESIAN_POINT('',(-0.03595,0.054052120859954,0.00463815572471545));
#1795=CARTESIAN_POINT('',(-0.025,0.054052120859954,0.00463815572471545));
#1796=CARTESIAN_POINT('',(-0.03595,0.055702120859954,0.00463815572471545));
#1797=CARTESIAN_POINT('',(-0.03595,0.055702120859954,8.67361737988404E-19));
#1798=CARTESIAN_POINT('',(-0.03595,0.0556639702342662,1.3010426069826E-18));
#1799=CARTESIAN_POINT('',(-0.03595,0.057352120859954,0.00463815572471545));
#1800=CARTESIAN_POINT('',(-0.03595,0.057352120859954,0.00463815572471545));
#1801=CARTESIAN_POINT('',(-0.03595,0.055702120859954,0.00463815572471545));
#1802=CARTESIAN_POINT('',(-0.025,0.057352120859954,0.00463815572471545));
#1803=CARTESIAN_POINT('',(-0.0359434884598776,0.05566634024105,6.51154012234963E-6));
#1804=CARTESIAN_POINT('',(-0.0360103073792141,0.0556420201433257,-6.0307379214096E-5));
#1805=CARTESIAN_POINT('',(-0.01405,0.0556420201433257,-6.0307379214096E-5));
#1806=CARTESIAN_POINT('',(-0.0139896926207859,0.0556420201433257,-6.0307379214096E-5));
#1807=CARTESIAN_POINT('',(-0.00853552001098306,0.0536568636608074,-0.00551447998901691));
#1808=CARTESIAN_POINT('',(-0.025,0.057352120859954,0.00463815572471545));
#1809=CARTESIAN_POINT('',(-0.025,0.031302120859954,0.00463815572471545));
#1810=CARTESIAN_POINT('',(-0.01305,0.02885,-0.001));
#1811=CARTESIAN_POINT('',(-0.0207682546287422,0.0508956199271327,0.00671825462874226));
#1812=CARTESIAN_POINT('',(-0.0167152815499586,0.0562345645397221,0.00266528154995862));
#1813=CARTESIAN_POINT('',(-0.025,0.0523420201433257,-6.03073792140923E-5));
#1814=CARTESIAN_POINT('',(-0.0347925314348822,0.0540811844308816,0.00115746856511771));
#1815=CARTESIAN_POINT('',(-0.0195,0.0563,-0.001));
#1816=CARTESIAN_POINT('',(-0.0359787721906294,0.0556199389665599,-2.87721906294716E-5));
#1817=CARTESIAN_POINT('',(-0.03595,0.055702120859954,8.67361737988404E-19));
#1818=CARTESIAN_POINT('',(-0.0418,0.02925,0.0109));
#1819=CARTESIAN_POINT('',(-0.0418,0.007,0.0089));
#1820=CARTESIAN_POINT('',(-0.0418,0.007,0.0094));
#1821=CARTESIAN_POINT('',(-0.0418,0.007,0.0104));
#1822=CARTESIAN_POINT('',(-0.0418,0.0045,0.0104));
#1823=CARTESIAN_POINT('',(-0.0418,0.002,0.0104));
#1824=CARTESIAN_POINT('',(-0.0418,0.002,0.0089));
#1825=CARTESIAN_POINT('',(-0.0418,0.002,0.0094));
#1826=CARTESIAN_POINT('',(-0.0418,0.02925,0.0094));
#1827=CARTESIAN_POINT('',(-0.0408,0.002,0.0089));
#1828=CARTESIAN_POINT('',(-0.0413,0.002,0.0089));
#1829=CARTESIAN_POINT('',(-0.04205,0.002,0.01015));
#1830=CARTESIAN_POINT('',(-0.0413,0.02925,0.0089));
#1831=CARTESIAN_POINT('',(-0.04105,0.007,0.00865));
#1832=CARTESIAN_POINT('',(-0.0413,0.02925,0.0109));
#1833=CARTESIAN_POINT('',(-0.0413,0.007,0.0109));
#1834=CARTESIAN_POINT('',(-0.0408,0.007,0.0089));
#1835=CARTESIAN_POINT('',(-0.0082,0.02925,0.0109));
#1836=CARTESIAN_POINT('',(-0.0082,0.002,0.0089));
#1837=CARTESIAN_POINT('',(-0.0082,0.002,0.0094));
#1838=CARTESIAN_POINT('',(-0.0082,0.002,0.0104));
#1839=CARTESIAN_POINT('',(-0.0082,0.0045,0.0104));
#1840=CARTESIAN_POINT('',(-0.0082,0.007,0.0104));
#1841=CARTESIAN_POINT('',(-0.0082,0.007,0.0089));
#1842=CARTESIAN_POINT('',(-0.0082,0.007,0.0094));
#1843=CARTESIAN_POINT('',(-0.0082,0.02925,0.0094));
#1844=CARTESIAN_POINT('',(-0.0092,0.002,0.0089));
#1845=CARTESIAN_POINT('',(-0.0082,0.002,0.0104));
#1846=CARTESIAN_POINT('',(-0.00895,0.002,0.00865));
#1847=CARTESIAN_POINT('',(-0.0082,0.02925,0.0094));
#1848=CARTESIAN_POINT('',(-0.0082,0.007,0.0094));
#1849=CARTESIAN_POINT('',(-0.0082,0.0045,0.0104));
#1850=CARTESIAN_POINT('',(-0.00795,0.007,0.01015));
#1851=CARTESIAN_POINT('',(-0.0092,0.007,0.0089));
#1852=CARTESIAN_POINT('',(-0.0082,0.02925,0.0109));
#1853=CARTESIAN_POINT('',(-0.0082,0.0515,0.0089));
#1854=CARTESIAN_POINT('',(-0.0082,0.0515,0.0094));
#1855=CARTESIAN_POINT('',(-0.0082,0.0515,0.0104));
#1856=CARTESIAN_POINT('',(-0.0082,0.054,0.0104));
#1857=CARTESIAN_POINT('',(-0.0082,0.0565,0.0104));
#1858=CARTESIAN_POINT('',(-0.0082,0.0565,0.0089));
#1859=CARTESIAN_POINT('',(-0.0082,0.0565,0.0094));
#1860=CARTESIAN_POINT('',(-0.0082,0.02925,0.0094));
#1861=CARTESIAN_POINT('',(-0.0092,0.0565,0.0089));
#1862=CARTESIAN_POINT('',(-0.00895,0.0565,0.00865));
#1863=CARTESIAN_POINT('',(-0.0082,0.0565,0.0104));
#1864=CARTESIAN_POINT('',(-0.0082,0.02925,0.0094));
#1865=CARTESIAN_POINT('',(-0.0082,0.0515,0.0094));
#1866=CARTESIAN_POINT('',(-0.0082,0.054,0.0104));
#1867=CARTESIAN_POINT('',(-0.00795,0.0515,0.01015));
#1868=CARTESIAN_POINT('',(-0.0092,0.0515,0.0089));
#1869=CARTESIAN_POINT('',(-0.0408,0.0515,0.0089));
#1870=CARTESIAN_POINT('',(-0.04105,0.0515,0.00865));
#1871=CARTESIAN_POINT('',(-0.0418,0.0515,0.0094));
#1872=CARTESIAN_POINT('',(-0.0418,0.0515,0.0089));
#1873=CARTESIAN_POINT('',(-0.0418,0.0515,0.0104));
#1874=CARTESIAN_POINT('',(-0.0413,0.0515,0.0109));
#1875=CARTESIAN_POINT('',(-0.0408,0.0565,0.0089));
#1876=CARTESIAN_POINT('',(-0.04205,0.0565,0.01015));
#1877=CARTESIAN_POINT('',(-0.0418,0.0565,0.0104));
#1878=CARTESIAN_POINT('',(-0.0418,0.0565,0.0089));
#1879=CARTESIAN_POINT('',(-0.0418,0.0565,0.0094));
#1880=CARTESIAN_POINT('',(-0.0413,0.0565,0.0089));
#1881=CARTESIAN_POINT('',(-0.0413,0.02925,0.0109));
#1882=CARTESIAN_POINT('',(-0.0418,0.054,0.0104));
#1883=CARTESIAN_POINT('',(-0.0413,0.02925,0.0089));
#1884=CARTESIAN_POINT('',(-0.0418,0.02925,0.0094));
#1885=CARTESIAN_POINT('',(-0.0418,0.02925,0.0109));
#1886=MECHANICAL_DESIGN_GEOMETRIC_PRESENTATION_REPRESENTATION('',(#1161),
#1887);
#1887=(
GEOMETRIC_REPRESENTATION_CONTEXT(3)
GLOBAL_UNCERTAINTY_ASSIGNED_CONTEXT((#1888))
GLOBAL_UNIT_ASSIGNED_CONTEXT((#1891,#1890,#1889))
REPRESENTATION_CONTEXT('ESPCase','TOP_LEVEL_ASSEMBLY_PART')
);
#1888=UNCERTAINTY_MEASURE_WITH_UNIT(LENGTH_MEASURE(1.E-8),#1891,
'DISTANCE_ACCURACY_VALUE','Maximum Tolerance applied to model');
#1889=(
NAMED_UNIT(*)
SI_UNIT($,.STERADIAN.)
SOLID_ANGLE_UNIT()
);
#1890=(
NAMED_UNIT(*)
PLANE_ANGLE_UNIT()
SI_UNIT($,.RADIAN.)
);
#1891=(
LENGTH_UNIT()
NAMED_UNIT(*)
SI_UNIT($,.METRE.)
);
#1892=PRODUCT_DEFINITION_SHAPE('','',#1893);
#1893=PRODUCT_DEFINITION('','',#1895,#1894);
#1894=PRODUCT_DEFINITION_CONTEXT('',#1901,'design');
#1895=PRODUCT_DEFINITION_FORMATION_WITH_SPECIFIED_SOURCE('','',#1897,
 .NOT_KNOWN.);
#1896=PRODUCT_RELATED_PRODUCT_CATEGORY('','',(#1897));
#1897=PRODUCT('ESPCase','ESPCase','ESPCase',(#1899));
#1898=PRODUCT_CATEGORY('','');
#1899=PRODUCT_CONTEXT('',#1901,'mechanical');
#1900=APPLICATION_PROTOCOL_DEFINITION('international standard',
'ap242_managed_model_based_3d_engineering',2020,#1901);
#1901=APPLICATION_CONTEXT('managed model based 3d engineering');
ENDSEC;
END-ISO-10303-21;
